<svg xmlns="http://www.w3.org/2000/svg" width="25" height="25" viewBox="0 0 25 25">
    <path fill="#4F84E5" fill-rule="nonzero" d="M17.827 11.036c.26.26.709.26.969 0a4.132 4.132 0 0 0 0-5.832 4.132 4.132 0 0 0-5.832 0l-8.76 8.76a4.132 4.132 0 0 0 0 5.831A4.124 4.124 0 0 0 7.131 21c1.063 0 2.101-.401 2.928-1.205l5.926-5.926a2.443 2.443 0 0 0-.07-3.33 2.393 2.393 0 0 0-3.4 0l-4.911 4.888a.699.699 0 0 0 0 .969c.26.26.708.26.968 0l4.864-4.865a1.04 1.04 0 0 1 1.464 0 1.04 1.04 0 0 1 0 1.464l-5.832 5.833c-1.063 1.062-2.81 1.062-3.896 0-1.063-1.063-1.063-2.81 0-3.896l8.76-8.76c1.062-1.063 2.809-1.063 3.895 0 1.087 1.062 1.063 2.809 0 3.895a.658.658 0 0 0 0 .969z"/>
</svg>
