<?xml version="1.0" encoding="UTF-8" standalone="no"?>
<svg
   xmlns:dc="http://purl.org/dc/elements/1.1/"
   xmlns:cc="http://creativecommons.org/ns#"
   xmlns:rdf="http://www.w3.org/1999/02/22-rdf-syntax-ns#"
   xmlns:svg="http://www.w3.org/2000/svg"
   xmlns="http://www.w3.org/2000/svg"
   xmlns:sodipodi="http://sodipodi.sourceforge.net/DTD/sodipodi-0.dtd"
   xmlns:inkscape="http://www.inkscape.org/namespaces/inkscape"
   version="1.1"
   x="0px"
   y="0px"
   viewBox="0 0 37 33.357258"
   enable-background="new 0 0 50 50"
   xml:space="preserve"
   id="svg827"
   sodipodi:docname="blotting-paper.svg"
   width="37"
   height="33.357258"
   style="fill:#74a7eb"
   inkscape:version="0.92.2 (5c3e80d, 2017-08-06)"><metadata
     id="metadata833"><rdf:RDF><cc:Work
         rdf:about=""><dc:format>image/svg+xml</dc:format><dc:type
           rdf:resource="http://purl.org/dc/dcmitype/StillImage" /></cc:Work></rdf:RDF></metadata><defs
     id="defs831" /><sodipodi:namedview
     pagecolor="#ffffff"
     bordercolor="#666666"
     borderopacity="1"
     objecttolerance="10"
     gridtolerance="10"
     guidetolerance="10"
     inkscape:pageopacity="0"
     inkscape:pageshadow="2"
     inkscape:window-width="1920"
     inkscape:window-height="1018"
     id="namedview829"
     showgrid="false"
     inkscape:zoom="16.98"
     inkscape:cx="20.773"
     inkscape:cy="16.589"
     inkscape:window-x="-8"
     inkscape:window-y="-8"
     inkscape:window-maximized="1"
     inkscape:current-layer="svg827" /><path
     d="m 36.606865,26.378885 c 0,0 -12.906847,5.0016 -18.21833,6.978374 C 7.643466,21.19228 0,20.310733 0,20.310733 c 0,0 2.2552064,-0.867672 4.558514,-1.735344 C 4.1681542,18.39686 3.6769669,18.137854 3.1349034,17.768769 4.8498962,17.152704 7.844196,16.133328 9.139228,15.693942 c -0.09065,-3.331008 1.098928,-5.203255 1.098928,-5.203255 0,0 1.770494,-0.6789671 4.208855,-1.6132401 0.07308,-1.334808 0.360759,-3.081252 0.360759,-3.081252 11.206655,-4.2144054 15.921498,-5.317958 17.38396,-5.60009 L 33.678242,0 30.951274,4.9266729 C 26.785895,12.076177 33.903948,20.063752 37,23.038626 l -2.60209,1.294107 c 1.280232,1.295958 2.208955,2.046152 2.208955,2.046152 z M 15.471012,8.4870869 c 5.437286,-2.079452 13.153829,-5.021025 13.108502,-4.943323 -4.516887,7.7526181 1.148879,15.7781191 5.006226,19.9388731 l 1.40881,-0.768694 C 31.40546,18.937073 25.806295,11.394435 29.923573,4.3272579 l 1.431011,-2.7621188 c -2.234856,0.5605638 -7.242006,1.9582738 -15.717993,5.1912298 -0.08325,0.542064 -0.135053,1.212705 -0.165579,1.730718 z M 34.509838,25.9987 C 33.149129,24.714768 31.041926,22.514138 29.229806,19.742769 25.945974,14.710643 25.0154,9.8366959 26.475087,5.4900119 c -3.569664,1.341284 -10.38061,3.944299 -15.451586,5.8896231 -0.320983,0.686367 -1.021226,2.566939 -0.698393,5.377159 0.701168,5.755494 8.389035,15.291557 8.389035,15.291557 4.322633,-1.62064 12.311133,-4.701892 15.795695,-6.049651 z"
     id="path825"
     inkscape:connector-curvature="0"
     style="fill:#74a7eb;stroke-width:0.92502314" /></svg>