<svg xmlns="http://www.w3.org/2000/svg" width="25" height="25" viewBox="0 0 25 25">
    <g fill="#4F84E5" fill-rule="nonzero">
        <path d="M14.5 13.5a2 2 0 1 1-3.999.001A2 2 0 0 1 14.5 13.5"/>
        <path d="M21.667 6.961h-4.89L15.555 4.5h-6.11L8.22 6.961H3.333c-1.039 0-1.833.8-1.833 1.847v9.846c0 .984.794 1.846 1.833 1.846h18.334c1.039 0 1.833-.862 1.833-1.846V8.808c0-1.046-.794-1.847-1.833-1.847zM12.5 18.04c-2.383 0-4.277-1.908-4.277-4.308s1.894-4.307 4.277-4.307 4.277 1.907 4.277 4.307c0 2.4-1.894 4.308-4.277 4.308z"/>
    </g>
</svg>
