<?xml version="1.0" encoding="UTF-8" standalone="no"?>
<svg
   xmlns:dc="http://purl.org/dc/elements/1.1/"
   xmlns:cc="http://creativecommons.org/ns#"
   xmlns:rdf="http://www.w3.org/1999/02/22-rdf-syntax-ns#"
   xmlns:svg="http://www.w3.org/2000/svg"
   xmlns="http://www.w3.org/2000/svg"
   xmlns:sodipodi="http://sodipodi.sourceforge.net/DTD/sodipodi-0.dtd"
   xmlns:inkscape="http://www.inkscape.org/namespaces/inkscape"
   version="1.1"
   x="0px"
   y="0px"
   viewBox="0 0 97.599998 97.599998"
   style="fill:#51a7f9"
   xml:space="preserve"
   id="svg8"
   sodipodi:docname="check-question-mark.svg"
   inkscape:version="0.92.1 r15371"
   width="97.599998"
   height="97.599998"><metadata
     id="metadata14"><rdf:RDF><cc:Work
         rdf:about=""><dc:format>image/svg+xml</dc:format><dc:type
           rdf:resource="http://purl.org/dc/dcmitype/StillImage" /><dc:title></dc:title></cc:Work></rdf:RDF></metadata><defs
     id="defs12" /><sodipodi:namedview
     pagecolor="#ffffff"
     bordercolor="#666666"
     borderopacity="1"
     objecttolerance="10"
     gridtolerance="10"
     guidetolerance="10"
     inkscape:pageopacity="0"
     inkscape:pageshadow="2"
     inkscape:window-width="2498"
     inkscape:window-height="1418"
     id="namedview10"
     showgrid="false"
     inkscape:zoom="4.72"
     inkscape:cx="-37.97804"
     inkscape:cy="24.658574"
     inkscape:window-x="1912"
     inkscape:window-y="-8"
     inkscape:window-maximized="1"
     inkscape:current-layer="svg8"
     fit-margin-top="0"
     fit-margin-left="0"
     fit-margin-right="0"
     fit-margin-bottom="0" /><path
     d="m 48.8,21.9 c -8,0 -14.6,6.5 -14.6,14.6 0,2.1 1.7,3.7 3.7,3.7 2,0 3.7,-1.7 3.7,-3.7 0,-3.9 3.2,-7.1 7.1,-7.1 4.1,0 7.1,2.9 7.1,6.8 0,0 0,0.1 0,0.3 0,2.2 -0.6,7.4 -7.7,8.5 -1.8,0.3 -3.2,1.8 -3.2,3.7 v 10.1 c 0,2.1 1.7,3.7 3.7,3.7 2,0 3.7,-1.7 3.7,-3.7 v -7.1 c 9.4,-2.9 10.9,-11 10.9,-15.5 0.2,-8 -6.4,-14.3 -14.4,-14.3 z"
     id="path2"
     style="fill:#629be8;fill-opacity:1"
     inkscape:connector-curvature="0" /><path
     d="m 48.8,67 c -2.7,0 -4.8,2.2 -4.8,4.8 0,2.6 2.2,4.8 4.8,4.8 2.6,0 4.8,-2.2 4.8,-4.8 0,-2.6 -2.2,-4.8 -4.8,-4.8 z"
     id="path4"
     style="fill:#629be8;fill-opacity:1"
     inkscape:connector-curvature="0" /><path
     d="M 48.8,0 C 21.9,0 0,21.9 0,48.8 0,75.7 21.9,97.6 48.8,97.6 75.7,97.6 97.6,75.7 97.6,48.8 97.6,21.9 75.7,0 48.8,0 Z m 0,90.2 C 26,90.2 7.4,71.6 7.4,48.8 7.4,26 26,7.4 48.8,7.4 71.6,7.4 90.2,26 90.2,48.8 90.1,71.6 71.6,90.2 48.8,90.2 Z"
     id="path6"
     style="fill:#629be8;fill-opacity:1"
     inkscape:connector-curvature="0" /></svg>