<?xml version="1.0" encoding="UTF-8" standalone="no"?>
<svg
   xmlns:dc="http://purl.org/dc/elements/1.1/"
   xmlns:cc="http://creativecommons.org/ns#"
   xmlns:rdf="http://www.w3.org/1999/02/22-rdf-syntax-ns#"
   xmlns:svg="http://www.w3.org/2000/svg"
   xmlns="http://www.w3.org/2000/svg"
   xmlns:sodipodi="http://sodipodi.sourceforge.net/DTD/sodipodi-0.dtd"
   xmlns:inkscape="http://www.inkscape.org/namespaces/inkscape"
   viewBox="0 0 79.003906 79.003891"
   version="1.1"
   x="0px"
   y="0px"
   id="svg6"
   sodipodi:docname="check-invalid.svg"
   width="79.003906"
   height="79.003891"
   style="fill:#c82606"
   inkscape:version="0.92.1 r15371">
  <metadata
     id="metadata12">
    <rdf:RDF>
      <cc:Work
         rdf:about="">
        <dc:format>image/svg+xml</dc:format>
        <dc:type
           rdf:resource="http://purl.org/dc/dcmitype/StillImage" />
        <dc:title></dc:title>
      </cc:Work>
    </rdf:RDF>
  </metadata>
  <defs
     id="defs10" />
  <sodipodi:namedview
     pagecolor="#ffffff"
     bordercolor="#666666"
     borderopacity="1"
     objecttolerance="10"
     gridtolerance="10"
     guidetolerance="10"
     inkscape:pageopacity="0"
     inkscape:pageshadow="2"
     inkscape:window-width="640"
     inkscape:window-height="480"
     id="namedview8"
     showgrid="false"
     fit-margin-top="0"
     fit-margin-left="0"
     fit-margin-right="0"
     fit-margin-bottom="0"
     inkscape:zoom="2.36"
     inkscape:cx="39.501955"
     inkscape:cy="39.50194"
     inkscape:window-x="0"
     inkscape:window-y="0"
     inkscape:window-maximized="0"
     inkscape:current-layer="svg6" />
  <g
     transform="translate(-10.498045,-962.86021)"
     id="g4">
    <path
       style="color:#000000;font-style:normal;font-variant:normal;font-weight:normal;font-stretch:normal;font-size:medium;line-height:normal;font-family:sans-serif;text-indent:0;text-align:start;text-decoration:none;text-decoration-line:none;text-decoration-style:solid;text-decoration-color:#000000;letter-spacing:normal;word-spacing:normal;text-transform:none;writing-mode:lr-tb;direction:ltr;baseline-shift:baseline;text-anchor:start;white-space:normal;clip-rule:nonzero;display:inline;overflow:visible;visibility:visible;opacity:1;isolation:auto;mix-blend-mode:normal;color-interpolation:sRGB;color-interpolation-filters:linearRGB;solid-color:#000000;solid-opacity:1;fill:#c82606;fill-opacity:1;fill-rule:nonzero;stroke:none;stroke-width:4;stroke-linecap:butt;stroke-linejoin:miter;stroke-miterlimit:4;stroke-dasharray:none;stroke-dashoffset:0;stroke-opacity:1;color-rendering:auto;image-rendering:auto;shape-rendering:auto;text-rendering:auto;enable-background:accumulate"
       d="m 49.999995,962.86021 c -21.79261,0 -39.50194,17.7093 -39.50195,39.50189 -5e-5,21.7927 17.7093,39.502 39.50195,39.502 21.79265,0 39.50201,-17.7093 39.50196,-39.502 -10e-6,-21.79259 -17.70935,-39.50189 -39.50196,-39.50189 z m 0,4 c 19.63085,0 35.50195,15.8711 35.50196,35.50189 4e-5,19.6309 -15.87107,35.502 -35.50196,35.502 -19.63088,0 -35.50199,-15.8711 -35.50195,-35.502 1e-5,-19.63079 15.8711,-35.50189 35.50195,-35.50189 z m -12.21875,20.1738 a 2.0002,2.0002 0 0 0 -1.52929,3.375 l 11.02734,11.95309 -11.02734,11.9512 a 2.0002,2.0002 0 1 0 2.93945,2.7129 l 10.80859,-11.7149 10.8086,11.7149 a 2.0002,2.0002 0 1 0 2.93945,-2.7129 l -11.02734,-11.9512 11.02734,-11.95309 a 2.0002,2.0002 0 0 0 -1.39062,-3.375 2.0002,2.0002 0 0 0 -1.54883,0.6641 l -10.8086,11.7148 -10.80859,-11.7148 a 2.0002,2.0002 0 0 0 -1.41016,-0.6641 z"
       id="path2"
       inkscape:connector-curvature="0" />
  </g>
</svg>
