<?xml version="1.0" encoding="UTF-8" standalone="no"?>
<svg
   xmlns:dc="http://purl.org/dc/elements/1.1/"
   xmlns:cc="http://creativecommons.org/ns#"
   xmlns:rdf="http://www.w3.org/1999/02/22-rdf-syntax-ns#"
   xmlns:svg="http://www.w3.org/2000/svg"
   xmlns="http://www.w3.org/2000/svg"
   xmlns:sodipodi="http://sodipodi.sourceforge.net/DTD/sodipodi-0.dtd"
   xmlns:inkscape="http://www.inkscape.org/namespaces/inkscape"
   data-name="Layer 1"
   viewBox="0 0 66 66"
   x="0px"
   y="0px"
   version="1.1"
   id="svg8"
   sodipodi:docname="check-correct.svg"
   width="66"
   height="66"
   style="fill:#70c041"
   inkscape:version="0.92.1 r15371">
  <metadata
     id="metadata14">
    <rdf:RDF>
      <cc:Work
         rdf:about="">
        <dc:format>image/svg+xml</dc:format>
        <dc:type
           rdf:resource="http://purl.org/dc/dcmitype/StillImage" />
        <dc:title>Artboard 7</dc:title>
      </cc:Work>
    </rdf:RDF>
  </metadata>
  <defs
     id="defs12" />
  <sodipodi:namedview
     pagecolor="#ffffff"
     bordercolor="#666666"
     borderopacity="1"
     objecttolerance="10"
     gridtolerance="10"
     guidetolerance="10"
     inkscape:pageopacity="0"
     inkscape:pageshadow="2"
     inkscape:window-width="640"
     inkscape:window-height="480"
     id="namedview10"
     showgrid="false"
     fit-margin-top="0"
     fit-margin-left="0"
     fit-margin-right="0"
     fit-margin-bottom="0"
     inkscape:zoom="2.6222222"
     inkscape:cx="33"
     inkscape:cy="33"
     inkscape:window-x="907"
     inkscape:window-y="236"
     inkscape:window-maximized="0"
     inkscape:current-layer="svg8" />
  <title
     id="title2">Artboard 7</title>
  <path
     d="M 33,66 A 33,33 0 1 1 66,33 33.037,33.037 0 0 1 33,66 Z M 33,4 A 29,29 0 1 0 62,33 29.033,29.033 0 0 0 33,4 Z"
     id="path4"
     inkscape:connector-curvature="0" />
  <path
     d="m 28.5,42.5 a 1.994,1.994 0 0 1 -1.414,-0.586 l -6,-6 a 2,2 0 0 1 2.828,-2.828 L 28.5,37.671 41.086,25.086 a 2,2 0 0 1 2.828,2.828 l -14,14 A 1.994,1.994 0 0 1 28.5,42.5 Z"
     id="path6"
     inkscape:connector-curvature="0" />
</svg>
