<svg xmlns="http://www.w3.org/2000/svg" width="20" height="18" viewBox="0 0 20 18">
    <path fill="none" fill-rule="nonzero" stroke="#9B9B9B" d="M2.471 1.217C1.66 1.217 1 1.877 1 2.688v8.407c0 .812.66 1.472 1.471 1.472h2.2l-.407 3.967c-.022.174.24.298.362.17l4.15-4.137h1.682v.853c0 .572.47 1.038 1.044 1.038h3.252l2.285 2.246c.126.124.383-.01.355-.183l-.361-2.063h.578c.574 0 1.044-.466 1.044-1.038V9.4c0-.571-.47-1.037-1.044-1.037h-1.478V2.688c0-.811-.66-1.471-1.471-1.471H2.472zm0 .42h12.19c.587 0 1.052.465 1.052 1.051v8.407c0 .586-.465 1.051-1.051 1.051h-5.97a.209.209 0 0 0-.152.06l-3.796 3.79.374-3.62a.22.22 0 0 0-.21-.23H2.471c-.586 0-1.05-.465-1.05-1.05V2.687c0-.586.464-1.05 1.05-1.05zM3.943 3.95a.21.21 0 0 0 0 .42h9.247a.21.21 0 0 0 0-.42H3.943zm0 2.732a.21.21 0 0 0 0 .42h9.247a.21.21 0 0 0 0-.42H3.943zm12.19 2.102h1.478c.35 0 .624.274.624.618v4.02a.616.616 0 0 1-.624.617h-.834c-.122-.002-.23.122-.21.243l.295 1.668-1.885-1.852a.213.213 0 0 0-.144-.06h-3.33a.616.616 0 0 1-.625-.617v-.853h3.784c.811 0 1.471-.66 1.471-1.472V8.783zm-12.19.63a.21.21 0 1 0 0 .421h9.247a.21.21 0 1 0 0-.42H3.943z"/>
</svg>
