<svg fill="#74A7EB" xmlns="http://www.w3.org/2000/svg" xmlns:xlink="http://www.w3.org/1999/xlink" version="1.1" x="0px" y="0px" viewBox="0 0 32 32" enable-background="new 0 0 32 32" xml:space="preserve"><g><path d="M27.87,6.414l-2.182-2.406c-0.092-0.102-0.223-0.161-0.36-0.164c-0.139,0.008-0.271,0.052-0.367,0.15l-2.009,2.05   l-1.915-2.035c-0.093-0.098-0.221-0.155-0.355-0.157c-0.144,0.011-0.265,0.05-0.36,0.145l-2.076,2.058L16.312,4.01   c-0.093-0.098-0.221-0.154-0.354-0.156c-0.136,0.009-0.265,0.05-0.36,0.145l-2.092,2.067L11.434,4   c-0.192-0.191-0.499-0.195-0.695-0.012l-2.58,2.417C8.058,6.5,8,6.632,8,6.771V18H3v1h0.038c0,5,1.397,10,3.987,10H24v-0.003   c0.009,0,0.017,0.003,0.025,0.003C26.514,29,28,23.746,28,18.667V6.75C28,6.626,27.954,6.506,27.87,6.414z M4.038,19   c0,0,12.795,0,15.962,0c0.125,4.133,1.053,7.453,2.295,9H7.025C5.612,28,4.038,24,4.038,19z M27,18.667   C27,24.009,25.43,28,24.025,28c-1.244,0-2.666-3.396-2.928-8H25v-1h-3.94c-0.003-0.167-0.009-0.331-0.009-0.5   c0-0.276-0.224-0.5-0.5-0.5H9V6.987l2.069-1.938l2.08,2.075c0.195,0.195,0.51,0.197,0.705,0.002l2.082-2.058l1.934,2.045   c0.093,0.098,0.221,0.154,0.355,0.156c0.156,0.007,0.263-0.05,0.359-0.145l2.075-2.058l1.921,2.041   c0.094,0.099,0.224,0.156,0.359,0.157c0.112-0.003,0.266-0.053,0.362-0.15l2.002-2.043L27,6.943V18.667z"></path><rect x="11" y="10" width="14" height="1"></rect><rect x="11" y="13" width="14" height="1"></rect><rect x="11" y="16" width="14" height="1"></rect></g></svg>