<svg xmlns="http://www.w3.org/2000/svg" width="16" height="16" viewBox="0 0 16 16">
    <g fill="#74A7EB" fill-rule="nonzero">
        <path d="M10.825 8.075v-5.15a2.742 2.742 0 0 0-2.75-2.75h-5.15a2.742 2.742 0 0 0-2.75 2.75v5.15a2.742 2.742 0 0 0 2.75 2.75h5.15a2.742 2.742 0 0 0 2.75-2.75zm-9.125 0v-5.15c0-.7.55-1.25 1.25-1.25H8.1c.7 0 1.25.55 1.25 1.25v5.15c0 .7-.55 1.25-1.25 1.25H2.925c-.675 0-1.25-.55-1.225-1.25z"/>
        <path d="M13.075 5.175h-1.25v1.5h1.25c.7 0 1.25.55 1.25 1.25v5.15c0 .7-.55 1.25-1.25 1.25h-5.15c-.7 0-1.25-.55-1.25-1.25v-1.25h-1.5v1.25a2.742 2.742 0 0 0 2.75 2.75h5.15a2.742 2.742 0 0 0 2.75-2.75v-5.15c0-1.525-1.25-2.75-2.75-2.75z"/>
    </g>
</svg>
