<?xml version="1.0" encoding="UTF-8" standalone="no"?>
<svg
   xmlns:dc="http://purl.org/dc/elements/1.1/"
   xmlns:cc="http://creativecommons.org/ns#"
   xmlns:rdf="http://www.w3.org/1999/02/22-rdf-syntax-ns#"
   xmlns:svg="http://www.w3.org/2000/svg"
   xmlns="http://www.w3.org/2000/svg"
   xmlns:sodipodi="http://sodipodi.sourceforge.net/DTD/sodipodi-0.dtd"
   xmlns:inkscape="http://www.inkscape.org/namespaces/inkscape"
   version="1.1"
   x="0px"
   y="0px"
   viewBox="0 0 37 37"
   enable-background="new 0 0 64 64"
   xml:space="preserve"
   id="svg28"
   sodipodi:docname="electron-detector.svg"
   width="37"
   height="37"
   style="fill:#74a7eb"
   inkscape:version="0.92.2 5c3e80d, 2017-08-06"><metadata
     id="metadata34"><rdf:RDF><cc:Work
         rdf:about=""><dc:format>image/svg+xml</dc:format><dc:type
           rdf:resource="http://purl.org/dc/dcmitype/StillImage" /><dc:title></dc:title></cc:Work></rdf:RDF></metadata><defs
     id="defs32" /><sodipodi:namedview
     pagecolor="#ffffff"
     bordercolor="#666666"
     borderopacity="1"
     objecttolerance="10"
     gridtolerance="10"
     guidetolerance="10"
     inkscape:pageopacity="0"
     inkscape:pageshadow="2"
     inkscape:window-width="1328"
     inkscape:window-height="670"
     id="namedview30"
     showgrid="false"
     units="px"
     fit-margin-left="0"
     fit-margin-top="0"
     fit-margin-right="0"
     fit-margin-bottom="0"
     inkscape:zoom="13.324324"
     inkscape:cx="18.5"
     inkscape:cy="18.5"
     inkscape:window-x="203"
     inkscape:window-y="850"
     inkscape:window-maximized="0"
     inkscape:current-layer="svg28" /><g
     id="g26"
     transform="matrix(0.75510204,0,0,0.75510204,-5.6632653,-5.6632653)"><g
       id="g24"><path
         d="M 56,47.5 H 8 c -0.276,0 -0.5,0.224 -0.5,0.5 v 8 c 0,0.276 0.224,0.5 0.5,0.5 h 48 c 0.276,0 0.5,-0.224 0.5,-0.5 v -8 c 0,-0.276 -0.224,-0.5 -0.5,-0.5 z m -0.5,8 h -47 v -7 h 47 z"
         id="path2"
         inkscape:connector-curvature="0" /><path
         d="m 16,40.5 c 0.276,0 0.5,-0.224 0.5,-0.5 V 28 c 0,-0.276 -0.224,-0.5 -0.5,-0.5 -0.276,0 -0.5,0.224 -0.5,0.5 v 12 c 0,0.276 0.224,0.5 0.5,0.5 z"
         id="path4"
         inkscape:connector-curvature="0" /><path
         d="m 15.646,42.354 c 0.098,0.097 0.226,0.146 0.354,0.146 0.128,0 0.256,-0.049 0.354,-0.146 l 4,-4 c 0.195,-0.195 0.195,-0.512 0,-0.707 -0.195,-0.195 -0.512,-0.195 -0.707,0 L 16,41.293 12.354,37.647 c -0.195,-0.195 -0.512,-0.195 -0.707,0 -0.195,0.195 -0.195,0.512 0,0.707 z"
         id="path6"
         inkscape:connector-curvature="0" /><path
         d="m 32,40.5 c 0.276,0 0.5,-0.224 0.5,-0.5 V 28 c 0,-0.276 -0.224,-0.5 -0.5,-0.5 -0.276,0 -0.5,0.224 -0.5,0.5 v 12 c 0,0.276 0.224,0.5 0.5,0.5 z"
         id="path8"
         inkscape:connector-curvature="0" /><path
         d="M 35.646,37.646 32,41.293 28.354,37.647 c -0.195,-0.195 -0.512,-0.195 -0.707,0 -0.195,0.195 -0.195,0.512 0,0.707 l 4,4 c 0.097,0.097 0.225,0.146 0.353,0.146 0.128,0 0.256,-0.049 0.354,-0.146 l 4,-4 c 0.195,-0.195 0.195,-0.512 0,-0.707 -0.195,-0.195 -0.512,-0.196 -0.708,-10e-4 z"
         id="path10"
         inkscape:connector-curvature="0" /><path
         d="m 48,40.5 c 0.276,0 0.5,-0.224 0.5,-0.5 V 28 c 0,-0.276 -0.224,-0.5 -0.5,-0.5 -0.276,0 -0.5,0.224 -0.5,0.5 v 12 c 0,0.276 0.224,0.5 0.5,0.5 z"
         id="path12"
         inkscape:connector-curvature="0" /><path
         d="m 44.354,37.646 c -0.195,-0.195 -0.512,-0.195 -0.707,0 -0.195,0.195 -0.195,0.512 0,0.707 l 4,4 c 0.097,0.098 0.225,0.147 0.353,0.147 0.128,0 0.256,-0.049 0.354,-0.146 l 4,-4 c 0.195,-0.195 0.195,-0.512 0,-0.707 -0.195,-0.195 -0.512,-0.195 -0.707,0 L 48,41.293 Z"
         id="path14"
         inkscape:connector-curvature="0" /><path
         d="m 24,20.5 c 0.276,0 0.5,-0.224 0.5,-0.5 V 8 C 24.5,7.724 24.276,7.5 24,7.5 23.724,7.5 23.5,7.724 23.5,8 v 12 c 0,0.276 0.224,0.5 0.5,0.5 z"
         id="path16"
         inkscape:connector-curvature="0" /><path
         d="m 23.646,22.354 c 0.098,0.097 0.226,0.146 0.354,0.146 0.128,0 0.256,-0.049 0.354,-0.146 l 4,-4 c 0.195,-0.195 0.195,-0.512 0,-0.707 -0.195,-0.195 -0.512,-0.195 -0.707,0 L 24,21.293 20.354,17.647 c -0.195,-0.195 -0.512,-0.195 -0.707,0 -0.195,0.195 -0.195,0.512 0,0.707 z"
         id="path18"
         inkscape:connector-curvature="0" /><path
         d="m 40,20.5 c 0.276,0 0.5,-0.224 0.5,-0.5 V 8 C 40.5,7.724 40.276,7.5 40,7.5 39.724,7.5 39.5,7.724 39.5,8 v 12 c 0,0.276 0.224,0.5 0.5,0.5 z"
         id="path20"
         inkscape:connector-curvature="0" /><path
         d="m 39.646,22.354 c 0.098,0.097 0.226,0.146 0.354,0.146 0.128,0 0.256,-0.049 0.354,-0.146 l 4,-4 c 0.195,-0.195 0.195,-0.512 0,-0.707 -0.195,-0.195 -0.512,-0.195 -0.707,0 L 40,21.293 36.354,17.647 c -0.195,-0.195 -0.512,-0.195 -0.707,0 -0.195,0.195 -0.195,0.512 0,0.707 z"
         id="path22"
         inkscape:connector-curvature="0" /></g></g></svg>