<svg fill="#74A7EB" xmlns="http://www.w3.org/2000/svg" xmlns:xlink="http://www.w3.org/1999/xlink" version="1.1" x="0px" y="0px" viewBox="0 0 66 66" style="enable-background:new 0 0 66 66;" xml:space="preserve"><g><path d="M65,0C58.1,0,7.5,0,1,0C0.4,0,0,0.4,0,1v64c0,0.6,0.4,1,1,1h6c0.6,0,1-0.4,1-1v-2.4c9.9,0,39.5,0,50,0V65c0,0.6,0.4,1,1,1   h6c0.6,0,1-0.4,1-1V1C66,0.4,65.6,0,65,0z M54.3,27.9v1.8h-4.2v-1.8H54.3z M45.5,27.9h2.6v3.4h-2.6V27.9z M43.5,29.6h-4.2v-1.8h4.2   V29.6z M39.3,31.6h4.2v0.6c0,0.6,0.4,1,1,1h4.6c0.6,0,1-0.4,1-1v-0.6h4.2v9.3H39.3V31.6z M56.3,26.9c0-0.6-0.4-1-1-1   c-17.5,0,1.7,0-16.9,0c-0.6,0-1,0.4-1,1v3.7c0,0,0,0,0,0s0,0,0,0v10.3h-2V30.7c0,0,0,0,0,0s0,0,0,0v-3.7c0-1.3-0.2-1-17.9-1   c-0.6,0-1,0.4-1,1c0,5.3,0-2.1,0,14H8V23.2c9.2,0,39.4,0,50,0v17.7h-1.8C56.3,32.6,56.3,32.1,56.3,26.9z M33.3,27.9v1.8h-4.2v-1.8   H33.3z M24.5,27.9h2.6v3.4h-2.6V27.9z M22.5,29.6h-4.2v-1.8h4.2V29.6z M18.4,31.6h4.2v0.6c0,0.6,0.4,1,1,1h4.6c0.6,0,1-0.4,1-1   v-0.6h4.2v9.3H18.4V31.6z M58,21.2h-8.6c0-8.4,0-8.8,0-14c0-0.6-0.4-1-1-1c-10.2,0,10.8,0-16.9,0c-0.6,0-1,0.4-1,1v3.7c0,0,0,0,0,0   s0,0,0,0v10.3h-2V11c0,0,0,0,0,0s0,0,0,0V7.2c0-0.6-0.4-1-1-1c-18.1,0-1.4,0-16.9,0c-0.6,0-1,0.4-1,1c0,5.3,0-2.1,0,14H8V2h50V21.2   z M47.4,8.2v1.8h-4.2V8.2H47.4z M38.6,8.2h2.6v3.4h-2.6V8.2z M36.6,9.9h-4.2V8.2h4.2V9.9z M32.4,11.9h4.2v0.6c0,0.6,0.4,1,1,1h4.6   c0.6,0,1-0.4,1-1v-0.6h4.2v9.3H32.4V11.9z M26.4,8.2v1.8h-4.2V8.2H26.4z M17.6,8.2h2.6v3.4h-2.6V8.2z M15.6,9.9h-4.2V8.2h4.2V9.9z    M11.5,11.9h4.2v0.6c0,0.6,0.4,1,1,1h4.6c0.6,0,1-0.4,1-1v-0.6h4.2v9.3H11.5V11.9z M6,64H2V2h4V64z M27.1,47.6v1.8h-4.2v-1.8H27.1z    M18.4,47.6h2.6V51h-2.6V47.6z M16.4,49.3h-4.2v-1.8h4.2V49.3z M12.2,60.6v-9.3h4.2V52c0,0.6,0.4,1,1,1h4.6c0.6,0,1-0.4,1-1v-0.6   h4.2v9.3H12.2z M48.1,47.6v1.8h-4.2v-1.8H48.1z M39.3,47.6h2.6V51h-2.6V47.6z M37.3,49.3h-4.2v-1.8h4.2V49.3z M33.2,60.6v-9.3h4.2   V52c0,0.6,0.4,1,1,1h4.6c0.6,0,1-0.4,1-1v-0.6h4.2v9.3H33.2z M50.1,60.6c0-8.4,0-8.9,0-14c0-0.6-0.4-1-1-1c-18.1,0-1.4,0-16.9,0   c-0.6,0-1,0.4-1,1c0,5.3,0-2.1,0,14h-2c0-8.4,0-8.9,0-14c0-0.6-0.4-1-1-1c-18.1,0-1.4,0-16.9,0c-0.6,0-1,0.4-1,1c0,5.3,0-2.1,0,14   H8V42.9c7.7,0,43.6,0,50,0v17.7H50.1z M64,64h-4V2h4V64z"></path></g></svg>