<?xml version="1.0" encoding="UTF-8" standalone="no"?>
<svg
   xmlns:dc="http://purl.org/dc/elements/1.1/"
   xmlns:cc="http://creativecommons.org/ns#"
   xmlns:rdf="http://www.w3.org/1999/02/22-rdf-syntax-ns#"
   xmlns:svg="http://www.w3.org/2000/svg"
   xmlns="http://www.w3.org/2000/svg"
   xmlns:sodipodi="http://sodipodi.sourceforge.net/DTD/sodipodi-0.dtd"
   xmlns:inkscape="http://www.inkscape.org/namespaces/inkscape"
   width="26"
   height="26"
   viewBox="0 0 26 26"
   version="1.1"
   id="svg3711"
   sodipodi:docname="gear_2.svg"
   inkscape:version="0.92.2 (5c3e80d, 2017-08-06)">
  <metadata
     id="metadata3717">
    <rdf:RDF>
      <cc:Work
         rdf:about="">
        <dc:format>image/svg+xml</dc:format>
        <dc:type
           rdf:resource="http://purl.org/dc/dcmitype/StillImage" />
        <dc:title></dc:title>
      </cc:Work>
    </rdf:RDF>
  </metadata>
  <defs
     id="defs3715" />
  <sodipodi:namedview
     pagecolor="#ffffff"
     bordercolor="#666666"
     borderopacity="1"
     objecttolerance="10"
     gridtolerance="10"
     guidetolerance="10"
     inkscape:pageopacity="0"
     inkscape:pageshadow="2"
     inkscape:window-width="1920"
     inkscape:window-height="1017"
     id="namedview3713"
     showgrid="false"
     inkscape:zoom="32.615385"
     inkscape:cx="7.7264151"
     inkscape:cy="11.773585"
     inkscape:window-x="-4"
     inkscape:window-y="-4"
     inkscape:window-maximized="1"
     inkscape:current-layer="svg3711" />
  <path
     d="M7.286 19.395l-2.653 1.44a11.574 11.574 0 0 1-2.513-4.359L4.693 14.9a8.68 8.68 0 0 1-.002-3.8L2.118 9.522a11.628 11.628 0 0 1 2.516-4.357l2.651 1.44a8.68 8.68 0 0 1 3.293-1.9l.079-3.016a11.574 11.574 0 0 1 5.031-.003l.079 3.018a8.72 8.72 0 0 1 3.292 1.9l2.653-1.44a11.574 11.574 0 0 1 2.513 4.359L21.652 11.1a8.68 8.68 0 0 1 .002 3.8l2.573 1.577a11.628 11.628 0 0 1-2.516 4.357l-2.652-1.44a8.68 8.68 0 0 1-3.292 1.9l-.079 3.016a11.574 11.574 0 0 1-5.031.003l-.08-3.018a8.72 8.72 0 0 1-3.291-1.9zM10.69 17.3a4.966 4.966 0 1 0 4.965-8.6 4.966 4.966 0 0 0-4.965 8.6z"
     id="path3709"
     stroke-width="2"
     stroke="#FFF"
     fill-rule="evenodd"
     fill="none"
     style="fill:none;fill-opacity:1;stroke:#649de5;stroke-opacity:0.99082571" />
</svg>
