<svg xmlns="http://www.w3.org/2000/svg" width="26" height="26" viewBox="0 0 26 26">
    <path fill="none" fill-rule="evenodd" stroke="#FFF" stroke-width="2" d="M7.286 19.395l-2.653 1.44a11.574 11.574 0 0 1-2.513-4.359L4.693 14.9a8.68 8.68 0 0 1-.002-3.8L2.118 9.522a11.628 11.628 0 0 1 2.516-4.357l2.651 1.44a8.68 8.68 0 0 1 3.293-1.9l.079-3.016a11.574 11.574 0 0 1 5.031-.003l.079 3.018a8.72 8.72 0 0 1 3.292 1.9l2.653-1.44a11.574 11.574 0 0 1 2.513 4.359L21.652 11.1a8.68 8.68 0 0 1 .002 3.8l2.573 1.577a11.628 11.628 0 0 1-2.516 4.357l-2.652-1.44a8.68 8.68 0 0 1-3.292 1.9l-.079 3.016a11.574 11.574 0 0 1-5.031.003l-.08-3.018a8.72 8.72 0 0 1-3.291-1.9zM10.69 17.3a4.966 4.966 0 1 0 4.965-8.6 4.966 4.966 0 0 0-4.965 8.6z"/>
</svg>
