<svg xmlns="http://www.w3.org/2000/svg" width="24" height="24" viewBox="0 0 24 24">
    <path fill="#5F96F4" fill-rule="nonzero" d="M21.811 17.953a12.379 12.379 0 0 0 .016-11.874.67.67 0 0 0-.162-.293c-2.696-4.614-8.03-6.797-13.04-5.337S.163 6.654.183 12.047c.02 5.393 3.51 10.11 8.53 11.529 5.02 1.42 10.338-.807 12.999-5.442a.668.668 0 0 0 .1-.181zM1.485 12.655h4.099v4.397H2.697a10.88 10.88 0 0 1-1.21-4.397h-.002zm1.225-5.72h2.874v4.386H1.49c.094-1.536.51-3.033 1.22-4.386zm19.317 4.386h-4.093V6.935h2.874a10.879 10.879 0 0 1 1.22 4.386zm-5.38 0h-4.245V6.935h4.245v4.386zm-4.245-5.72V1.36a9.949 9.949 0 0 1 4.245 1.255v2.987h-4.245zm-1.286 0H6.87V2.616a9.949 9.949 0 0 1 4.246-1.255v4.242zm0 1.334v4.386H6.87V6.935h4.246zm-4.246 5.72h4.246v4.397H6.87v-4.397zm4.246 5.73v4.266a9.95 9.95 0 0 1-4.246-1.264v-3.002h4.246zm1.286 0h4.245v3.002a9.949 9.949 0 0 1-4.245 1.256v-4.258zm0-1.333v-4.397h4.245v4.397h-4.245zm5.532-4.397h4.096a10.88 10.88 0 0 1-1.21 4.397h-2.886v-4.397zm2.058-7.064h-2.058V3.47a10.58 10.58 0 0 1 2.045 2.133l.013-.01zM5.584 3.47v2.133H3.525a10.576 10.576 0 0 1 2.059-2.133zM3.525 18.385h2.059v2.133a10.576 10.576 0 0 1-2.059-2.133zm14.409 2.133v-2.133h2.058a10.58 10.58 0 0 1-2.058 2.149v-.016z"/>
</svg>
