<?xml version="1.0" encoding="UTF-8" standalone="no"?>
<svg
   xmlns:dc="http://purl.org/dc/elements/1.1/"
   xmlns:cc="http://creativecommons.org/ns#"
   xmlns:rdf="http://www.w3.org/1999/02/22-rdf-syntax-ns#"
   xmlns:svg="http://www.w3.org/2000/svg"
   xmlns="http://www.w3.org/2000/svg"
   xmlns:sodipodi="http://sodipodi.sourceforge.net/DTD/sodipodi-0.dtd"
   xmlns:inkscape="http://www.inkscape.org/namespaces/inkscape"
   version="1.1"
   x="0px"
   y="0px"
   viewBox="0 0 24 24"
   xml:space="preserve"
   id="svg48"
   sodipodi:docname="image_processing_software.svg"
   width="24"
   height="24"
   inkscape:version="0.92.2 5c3e80d, 2017-08-06"><metadata
     id="metadata54"><rdf:RDF><cc:Work
         rdf:about=""><dc:format>image/svg+xml</dc:format><dc:type
           rdf:resource="http://purl.org/dc/dcmitype/StillImage" /><dc:title>003-icon-design</dc:title></cc:Work></rdf:RDF></metadata><defs
     id="defs52" /><sodipodi:namedview
     pagecolor="#ffffff"
     bordercolor="#666666"
     borderopacity="1"
     objecttolerance="10"
     gridtolerance="10"
     guidetolerance="10"
     inkscape:pageopacity="0"
     inkscape:pageshadow="2"
     inkscape:window-width="1455"
     inkscape:window-height="786"
     id="namedview50"
     showgrid="false"
     fit-margin-top="0"
     fit-margin-left="0"
     fit-margin-right="0"
     fit-margin-bottom="0"
     inkscape:zoom="2.95"
     inkscape:cx="12"
     inkscape:cy="4"
     inkscape:window-x="1883"
     inkscape:window-y="751"
     inkscape:window-maximized="0"
     inkscape:current-layer="svg48" /><title
     id="title2">003-icon-design</title><path
     d="m 23.625,5.1 c 0,-1.3875 -1.0875,-2.475 -2.475,-2.475 H 2.85 C 1.4625,2.625 0.375,3.7125 0.375,5.1 v 11.55 c 0,1.3875 1.0875,2.475 2.475,2.475 H 9.4875 L 8.925,21.75 H 6.375 C 6.15,21.75 6,21.9 6,22.125 v 1.5 C 6,23.85 6.15,24 6.375,24 h 11.25 C 17.85,24 18,23.85 18,23.625 v -1.5 C 18,21.9 17.85,21.75 17.625,21.75 H 15.1125 L 14.55,19.125 h 6.6375 c 1.35,0 2.475,-1.0875 2.475,-2.475 V 5.1 Z M 2.85,3.375 h 18.3 c 0.9375,0 1.725,0.7875 1.725,1.725 0,0 0,0 0,0 v 9.525 H 1.125 V 5.1 C 1.125,4.1625 1.9125,3.375 2.85,3.375 Z M 17.25,23.25 H 6.75 V 22.5 h 10.5 z m -2.925,-1.5 h -4.65 l 0.5625,-2.625 h 3.525 z M 21.15,18.375 H 2.85 c -0.9375,0 -1.725,-0.7875 -1.725,-1.725 0,0 0,0 0,0 v -1.275 h 21.75 v 1.275 c 0,0.9375 -0.7875,1.725 -1.725,1.725 z"
     id="path4"
     style="fill:#5d94f7;fill-opacity:1;stroke-width:0.375"
     inkscape:connector-curvature="0" /><circle
     cx="12"
     cy="16.875"
     r="0.75"
     id="circle6"
     style="fill:#5d94f7;fill-opacity:1;stroke-width:0.375" /><path
     d="m 3.375,13.5 h 17.25 C 20.85,13.5 21,13.35 21,13.125 V 4.875 C 21,4.65 20.85,4.5 20.625,4.5 H 3.375 C 3.15,4.5 3,4.65 3,4.875 v 8.25 C 3,13.35 3.15,13.5 3.375,13.5 Z M 3.75,12.75 V 11.4 l 3,-3 3.1125,3.1125 c 0.15,0.15 0.375,0.15 0.525,0 0,0 0,0 0,0 l 1.9875,-1.9875 1.9875,1.9875 c 0.15,0.15 0.375,0.15 0.525,0 0,0 0,0 0,0 L 18,8.4 l 2.25,2.25 v 2.1 z m 16.5,-7.5 V 9.6 L 18.2625,7.6125 c -0.15,-0.15 -0.375,-0.15 -0.525,0 0,0 0,0 0,0 L 14.625,10.725 12.6375,8.7375 c -0.15,-0.15 -0.375,-0.15 -0.525,0 0,0 0,0 0,0 L 10.125,10.725 7.0125,7.6125 c -0.15,-0.15 -0.375,-0.15 -0.525,0 0,0 0,0 0,0 L 3.75,10.35 v -5.1 z"
     id="path8"
     style="fill:#5d94f7;fill-opacity:1;stroke-width:0.375"
     inkscape:connector-curvature="0" /><rect
     x="23.25"
     width="0.75"
     height="0.75"
     id="rect10"
     style="fill:#5d94f7;fill-opacity:1;stroke-width:0.375"
     y="0" /><rect
     x="23.25"
     y="1.5"
     width="0.75"
     height="0.75"
     id="rect12"
     style="fill:#5d94f7;fill-opacity:1;stroke-width:0.375" /><rect
     x="21.75"
     width="0.75"
     height="0.75"
     id="rect14"
     style="fill:#5d94f7;fill-opacity:1;stroke-width:0.375"
     y="0" /><rect
     x="10.875"
     y="7.5"
     width="0.75"
     height="0.75"
     id="rect16"
     style="fill:#5d94f7;fill-opacity:1;stroke-width:0.375" /><rect
     x="18.75"
     y="6"
     width="0.75"
     height="0.75"
     id="rect18"
     style="fill:#5d94f7;fill-opacity:1;stroke-width:0.375" /><rect
     x="8.25"
     y="6.375"
     width="0.75"
     height="0.75"
     id="rect20"
     style="fill:#5d94f7;fill-opacity:1;stroke-width:0.375" /><rect
     x="4.5"
     y="6"
     width="0.75"
     height="0.75"
     id="rect22"
     style="fill:#5d94f7;fill-opacity:1;stroke-width:0.375" /><rect
     width="0.75"
     height="0.75"
     id="rect24"
     style="fill:#5d94f7;fill-opacity:1;stroke-width:0.375"
     x="0"
     y="0" /><rect
     x="1.5"
     width="0.75"
     height="0.75"
     id="rect26"
     style="fill:#5d94f7;fill-opacity:1;stroke-width:0.375"
     y="0" /><rect
     y="1.5"
     width="0.75"
     height="0.75"
     id="rect28"
     style="fill:#5d94f7;fill-opacity:1;stroke-width:0.375"
     x="0" /><rect
     y="23.25"
     width="0.75"
     height="0.75"
     id="rect30"
     style="fill:#5d94f7;fill-opacity:1;stroke-width:0.375"
     x="0" /><rect
     y="21.75"
     width="0.75"
     height="0.75"
     id="rect32"
     style="fill:#5d94f7;fill-opacity:1;stroke-width:0.375"
     x="0" /><rect
     x="1.5"
     y="23.25"
     width="0.75"
     height="0.75"
     id="rect34"
     style="fill:#5d94f7;fill-opacity:1;stroke-width:0.375" /><rect
     x="23.25"
     y="23.25"
     width="0.75"
     height="0.75"
     id="rect36"
     style="fill:#5d94f7;fill-opacity:1;stroke-width:0.375" /><rect
     x="21.75"
     y="23.25"
     width="0.75"
     height="0.75"
     id="rect38"
     style="fill:#5d94f7;fill-opacity:1;stroke-width:0.375" /><rect
     x="23.25"
     y="21.75"
     width="0.75"
     height="0.75"
     id="rect40"
     style="fill:#5d94f7;fill-opacity:1;stroke-width:0.375" /><path
     d="m 14.625,9 c 0.825,0 1.5,-0.675 1.5,-1.5 0,-0.825 -0.675,-1.5 -1.5,-1.5 -0.825,0 -1.5,0.675 -1.5,1.5 0,0.825 0.675,1.5 1.5,1.5 z m 0,-2.25 c 0.4125,0 0.75,0.3375 0.75,0.75 0,0.4125 -0.3375,0.75 -0.75,0.75 -0.4125,0 -0.75,-0.3375 -0.75,-0.75 0,-0.4125 0.3375,-0.75 0.75,-0.75 z"
     id="path42"
     style="fill:#5d94f7;fill-opacity:1;stroke-width:0.375"
     inkscape:connector-curvature="0" /></svg>