<?xml version="1.0" encoding="UTF-8" standalone="no"?>
<svg
   xmlns:dc="http://purl.org/dc/elements/1.1/"
   xmlns:cc="http://creativecommons.org/ns#"
   xmlns:rdf="http://www.w3.org/1999/02/22-rdf-syntax-ns#"
   xmlns:svg="http://www.w3.org/2000/svg"
   xmlns="http://www.w3.org/2000/svg"
   xmlns:sodipodi="http://sodipodi.sourceforge.net/DTD/sodipodi-0.dtd"
   xmlns:inkscape="http://www.inkscape.org/namespaces/inkscape"
   width="34"
   height="34"
   viewBox="0 0 34 34"
   version="1.1"
   id="svg4784"
   sodipodi:docname="ligand_icon.svg"
   inkscape:version="0.92.2 (5c3e80d, 2017-08-06)">
  <metadata
     id="metadata4788">
    <rdf:RDF>
      <cc:Work
         rdf:about="">
        <dc:format>image/svg+xml</dc:format>
        <dc:type
           rdf:resource="http://purl.org/dc/dcmitype/StillImage" />
        <dc:title></dc:title>
      </cc:Work>
    </rdf:RDF>
  </metadata>
  <sodipodi:namedview
     pagecolor="#ffffff"
     bordercolor="#666666"
     borderopacity="1"
     objecttolerance="10"
     gridtolerance="10"
     guidetolerance="10"
     inkscape:pageopacity="0"
     inkscape:pageshadow="2"
     inkscape:window-width="1920"
     inkscape:window-height="1018"
     id="namedview4786"
     showgrid="false"
     inkscape:zoom="3.0786341"
     inkscape:cx="2.416585"
     inkscape:cy="-37.985827"
     inkscape:window-x="-8"
     inkscape:window-y="-8"
     inkscape:window-maximized="1"
     inkscape:current-layer="g4782" />
  <defs
     id="defs4648">
    <rect
       id="a"
       width="235"
       height="40"
       y="20"
       rx="5"
       x="0" />
  </defs>
  <g
     id="g4782"
     style="fill:none;fill-rule:evenodd"
     transform="translate(-341.06668,-318.55062)">
    <g
       style="fill:#5186e2;fill-opacity:1;fill-rule:nonzero"
       id="g4750"
       transform="matrix(1.7,0,0,1.7,247.56668,-28.24938)">
      <path
         inkscape:connector-curvature="0"
         id="path4744"
         d="m 66.667,221.5 a 0.566,0.566 0 0 1 -0.276,-0.072 l -3.604,-2.013 A 0.557,0.557 0 0 1 62.5,218.93 v -4.027 c 0,-0.2 0.11,-0.386 0.287,-0.485 l 3.604,-2.013 a 0.568,0.568 0 0 1 0.553,0 l 3.603,2.013 a 0.556,0.556 0 0 1 0.286,0.485 v 4.027 c 0,0.2 -0.11,0.386 -0.286,0.485 l -3.603,2.013 a 0.568,0.568 0 0 1 -0.277,0.072 z m -3.04,-2.895 3.04,1.698 3.04,-1.698 v -3.376 l -3.04,-1.699 -3.04,1.699 z"
         style="fill:#5186e2;fill-opacity:1" />
      <path
         inkscape:connector-curvature="0"
         id="path4746"
         d="m 70.833,214.833 a 0.57,0.57 0 0 1 -0.277,-0.071 l -3.603,-2.014 a 0.557,0.557 0 0 1 -0.286,-0.485 v -4.026 c 0,-0.201 0.11,-0.387 0.286,-0.485 l 3.604,-2.013 a 0.565,0.565 0 0 1 0.553,0 l 3.603,2.013 A 0.555,0.555 0 0 1 75,208.237 v 4.026 c 0,0.201 -0.11,0.386 -0.286,0.485 l -3.604,2.014 a 0.57,0.57 0 0 1 -0.277,0.071 z m -3.04,-2.895 3.04,1.699 3.04,-1.7 v -3.375 l -3.04,-1.698 -3.04,1.698 z m -8.626,9.562 a 0.567,0.567 0 0 1 -0.277,-0.072 l -3.603,-2.013 A 0.557,0.557 0 0 1 55,218.93 v -4.026 c 0,-0.201 0.11,-0.387 0.287,-0.486 l 3.603,-2.012 a 0.566,0.566 0 0 1 0.553,0 l 3.604,2.012 a 0.556,0.556 0 0 1 0.286,0.486 v 4.026 c 0,0.2 -0.11,0.386 -0.286,0.485 l -3.604,2.013 a 0.567,0.567 0 0 1 -0.276,0.072 z m -3.04,-2.895 3.04,1.698 3.04,-1.698 v -3.376 l -3.04,-1.699 -3.04,1.699 z"
         style="fill:#5186e2;fill-opacity:1" />
      <path
         inkscape:connector-curvature="0"
         id="path4748"
         d="m 59.583,214 c -0.23,0 -0.416,-0.281 -0.416,-0.629 v -2.076 c 0,-0.347 0.186,-0.628 0.416,-0.628 0.23,0 0.417,0.281 0.417,0.628 v 2.076 C 60,213.719 59.814,214 59.583,214 Z m 10.834,-6.667 c -0.23,0 -0.417,-0.281 -0.417,-0.628 v -2.076 c 0,-0.347 0.186,-0.629 0.417,-0.629 0.23,0 0.416,0.282 0.416,0.629 v 2.076 c 0,0.347 -0.186,0.628 -0.416,0.628 z M 59.583,224 c -0.23,0 -0.416,-0.281 -0.416,-0.629 v -2.076 c 0,-0.347 0.186,-0.628 0.416,-0.628 0.23,0 0.417,0.28 0.417,0.628 v 2.076 C 60,223.719 59.814,224 59.583,224 Z m 7.5,0 c -0.23,0 -0.416,-0.281 -0.416,-0.629 v -2.076 c 0,-0.347 0.186,-0.628 0.416,-0.628 0.23,0 0.417,0.28 0.417,0.628 v 2.076 c 0,0.348 -0.186,0.629 -0.417,0.629 z"
         style="fill:#5186e2;fill-opacity:1" />
    </g>
  </g>
</svg>
