<svg xmlns="http://www.w3.org/2000/svg" width="40" height="46" viewBox="0 0 40 46">
    <g fill="#51A7F9" fill-rule="evenodd">
        <path fill-rule="nonzero" d="M39.486 34.25L20 45.5.515 34.25v-22.5L20 .5l.3.173L39.486 11.75v22.5zm-1.2-.692V12.444L20 1.884 1.713 12.443l.002 21.115L20 44.115l18.285-10.557z"/>
        <path fill-rule="nonzero" d="M9.183 16.73V29.27L20 35.539l10.817-6.27V16.732l-.3-.174L20 10.463 9.183 16.731zm1.198.695L20 11.851l9.619 5.574v11.15L20 34.15l-9.619-5.575v-11.15z"/>
        <path d="M19.398 35v10H20.6V35zM19.398 1.001v10H20.6v-10zM30.691 28.482l-.6 1.039 8.661 5 .6-1.04zM1.248 11.482l-.6 1.039 8.66 5 .6-1.04zM38.752 11.482l-8.66 5 .6 1.039 8.66-5zM9.309 28.482l-8.66 5 .599 1.039 8.66-5-.6-1.04z"/>
    </g>
</svg>
