<svg xmlns="http://www.w3.org/2000/svg" width="24" height="27" viewBox="0 0 24 27">
    <g fill="#5186E2" fill-rule="evenodd" stroke="#5186E2" stroke-width="2">
        <path fill-rule="nonzero" d="M22.647 19.806l-10.593 5.931-10.592-5.93V7.946l10.592-5.93.163.09 10.43 5.84v11.86zm-.652-.364V8.312l-9.94-5.566-9.942 5.566.001 11.13 9.94 5.564 9.94-5.564z"/>
        <path fill-rule="nonzero" d="M6.174 10.572v6.609l5.88 3.305 5.88-3.305v-6.609l-.162-.091-5.718-3.213-5.88 3.304zm.651.366l5.23-2.939 5.229 2.939v5.877l-5.23 2.939-5.229-2.939v-5.877z"/>
        <path d="M11.727 20.201v5.271h.653v-5.27zM11.727 2.28v5.272h.653V2.28zM17.867 16.766l-.326.548 4.707 2.635.326-.548zM1.86 7.805l-.326.548 4.708 2.635.326-.547zM22.248 7.805l-4.707 2.636.326.547 4.707-2.635zM6.242 16.766L1.534 19.4l.326.548 4.708-2.635-.326-.548z"/>
    </g>
</svg>
