<?xml version="1.0" encoding="UTF-8" standalone="no"?>
<svg
   xmlns:dc="http://purl.org/dc/elements/1.1/"
   xmlns:cc="http://creativecommons.org/ns#"
   xmlns:rdf="http://www.w3.org/1999/02/22-rdf-syntax-ns#"
   xmlns:svg="http://www.w3.org/2000/svg"
   xmlns="http://www.w3.org/2000/svg"
   xmlns:sodipodi="http://sodipodi.sourceforge.net/DTD/sodipodi-0.dtd"
   xmlns:inkscape="http://www.inkscape.org/namespaces/inkscape"
   width="24.222757"
   height="34.346268"
   viewBox="0.3 0 26.106749 34.346268"
   version="1.1"
   id="svg6"
   sodipodi:docname="noun-1088002-cccccc.svg"
   inkscape:version="0.92.2 5c3e80d, 2017-08-06">
  <metadata
     id="metadata12">
    <rdf:RDF>
      <cc:Work
         rdf:about="">
        <dc:format>image/svg+xml</dc:format>
        <dc:type
           rdf:resource="http://purl.org/dc/dcmitype/StillImage" />
        <dc:title></dc:title>
      </cc:Work>
    </rdf:RDF>
  </metadata>
  <defs
     id="defs10" />
  <sodipodi:namedview
     pagecolor="#ffffff"
     bordercolor="#666666"
     borderopacity="1"
     objecttolerance="10"
     gridtolerance="10"
     guidetolerance="10"
     inkscape:pageopacity="0"
     inkscape:pageshadow="2"
     inkscape:window-width="1652"
     inkscape:window-height="883"
     id="namedview8"
     showgrid="false"
     viewbox-width="19.4"
     viewbox-x="0.3"
     inkscape:zoom="9.8333333"
     inkscape:cx="13.127841"
     inkscape:cy="17.563301"
     inkscape:window-x="227"
     inkscape:window-y="787"
     inkscape:window-maximized="0"
     inkscape:current-layer="svg6"
     fit-margin-top="0"
     fit-margin-left="0"
     fit-margin-right="0"
     fit-margin-bottom="0" />
  <g
     id="g4"
     transform="matrix(1.5428673,0,0,1.5428673,-0.20760334,-1.3645036)"
     style="fill:#424242;fill-rule:nonzero">
    <path
       d="M 1.346,21.95 H 17.23 V 24 H 1.346 Z M 6.964,17.9 c -1.26,0.6 -2.228,1.7 -2.76,3.05 H 14.422 A 5.413,5.413 0 0 0 11.419,17.8 6.607,6.607 0 0 0 15.39,12.75 C 15.923,9.5 14.131,6.4 11.226,5.35 L 12.049,3 A 0.73,0.73 0 0 0 11.613,2.05 L 11.177,1.9 11.419,1.25 C 11.516,1 11.371,0.7 11.129,0.6 L 9.724,0.05 C 9.482,-0.05 9.192,0.1 9.094,0.35 L 8.854,1 8.417,0.85 C 8.029,0.7 7.642,0.9 7.497,1.3 l -2.131,6 C 5.221,7.7 5.414,8.1 5.802,8.25 L 6.238,8.4 5.995,9.1 C 5.899,9.35 6.044,9.65 6.286,9.75 L 7.69,10.3 C 7.933,10.4 8.223,10.25 8.32,10 L 8.562,9.3 8.998,9.45 C 9.385,9.6 9.773,9.4 9.918,9 l 0.63,-1.8 c 2.033,0.75 3.293,2.9 2.905,5.15 -0.63,3.7 -5.036,5.2 -7.651,2.45 h 2.857 v -1.95 h -8.33 v 1.95 h 3.1 a 6.593,6.593 0 0 0 3.535,3.1 z"
       id="path2"
       inkscape:connector-curvature="0" />
  </g>
  <path
     style="opacity:0.98999999;fill:#74a7eb;fill-opacity:1;stroke:#74a7eb;stroke-width:0.10960452;stroke-opacity:1"
     d="M 6.4652079,30.667548 C 6.5942188,30.249232 7.352994,29.025125 7.8497015,28.433991 8.4647522,27.702015 9.2507414,27.033765 9.9821188,26.621 c 0.3227272,-0.182136 0.5867772,-0.345633 0.5867772,-0.363327 0,-0.0177 -0.377868,-0.21162 -0.8397072,-0.430946 C 9.2673499,25.607401 8.5891719,25.21355 8.2221267,24.951504 7.336131,24.318961 6.0035075,22.910678 5.4881452,22.0623 L 5.0727984,21.378565 H 2.7242369 0.3756755 v -1.424859 -1.424858 h 6.3570623 6.3570632 v 1.424858 1.424859 H 10.89771 c -1.2056501,0 -2.1920909,0.04338 -2.1920909,0.09641 0,0.13897 0.8906953,0.848376 1.6059609,1.279087 1.110323,0.668601 1.895458,0.870797 3.381045,0.870716 0.996533,-5.3e-5 1.461336,-0.04973 1.918079,-0.204994 2.459528,-0.836095 4.214942,-2.67942 4.825668,-5.067335 0.264186,-1.032952 0.284182,-2.64488 0.04539,-3.658089 -0.357895,-1.518517 -1.349861,-3.047587 -2.568206,-3.958772 -0.642696,-0.480663 -1.54739,-0.9759661 -1.778578,-0.9737383 -0.08171,7.674e-4 -0.37032,0.6535573 -0.688672,1.5575893 -0.494951,1.405522 -0.58368,1.576876 -0.916221,1.769404 -0.351267,0.203369 -0.393962,0.204934 -0.928482,0.034 -0.308155,-0.09854 -0.592633,-0.143225 -0.63217,-0.09929 -0.03953,0.04393 -0.156053,0.33929 -0.258922,0.656346 -0.306156,0.943618 -0.548104,0.981714 -2.194939,0.34561 C 9.0409125,13.455907 8.9147291,13.301576 9.1953342,12.410764 9.3031977,12.06834 9.4118117,11.734941 9.4366987,11.66988 9.4615856,11.604815 9.2862486,11.492952 9.0470608,11.42129 8.5512074,11.272728 8.0479963,10.741834 8.0479963,10.367261 c 0,-0.139286 0.7660115,-2.4166448 1.7022478,-5.0607991 2.0235899,-5.71510229 2.0015869,-5.67936501 3.2299559,-5.24597127 0.256288,0.09042341 0.47783,0.16440682 0.492315,0.16440682 0.01449,0 0.132139,-0.29017669 0.261455,-0.64483705 0.362796,-0.9950029 0.543964,-1.0277755 2.143377,-0.38773017 1.666538,0.66690739 1.658379,0.65152944 1.192766,2.24764097 -0.03644,0.1249187 0.09162,0.228189 0.455144,0.3670182 1.028837,0.3929163 1.047046,0.8259028 0.141728,3.3700434 l -0.611626,1.718802 0.829811,0.3940756 c 1.497498,0.7111587 3.039231,2.0272182 3.963369,3.3832236 0.536082,0.786604 1.166947,2.199352 1.452335,3.252328 0.364853,1.346171 0.365714,3.912034 0.0017,5.253693 -0.785264,2.894786 -2.730143,5.293489 -5.377774,6.632641 l -0.590363,0.298601 0.624486,0.314998 c 1.635094,0.824758 3.165767,2.449693 3.841204,4.077751 l 0.170544,0.411017 H 14.179929 6.3891512 l 0.076056,-0.24661 z"
     id="path831"
     inkscape:connector-curvature="0" />
  <path
     style="opacity:0.98999999;fill:#74a7eb;fill-opacity:1;stroke:#74a7eb;stroke-width:0.10960452;stroke-opacity:1"
     d="M 1.9101388,34.09269 V 32.558227 H 14.131043 26.351947 v 1.534463 1.534463 H 14.131043 1.9101388 Z"
     id="path833"
     inkscape:connector-curvature="0" />
</svg>
