<svg xmlns="http://www.w3.org/2000/svg" width="18" height="24" viewBox="0 0 18 24">
    <g fill="#5D94F7" fill-rule="nonzero">
        <path d="M1.346 21.95H17.23V24H1.346zM6.964 17.9c-1.26.6-2.228 1.7-2.76 3.05h10.218a5.413 5.413 0 0 0-3.003-3.15 6.607 6.607 0 0 0 3.971-5.05c.533-3.25-1.259-6.35-4.164-7.4L12.049 3a.73.73 0 0 0-.436-.95l-.436-.15.242-.65c.097-.25-.048-.55-.29-.65L9.724.05c-.242-.1-.532.05-.63.3L8.854 1 8.417.85c-.388-.15-.775.05-.92.45l-2.131 6c-.145.4.048.8.436.95l.436.15-.243.7c-.096.25.049.55.291.65l1.404.55c.243.1.533-.05.63-.3l.242-.7.436.15c.387.15.775-.05.92-.45l.63-1.8c2.033.75 3.293 2.9 2.905 5.15-.63 3.7-5.036 5.2-7.651 2.45h2.857v-1.95H.329v1.95h3.1a6.593 6.593 0 0 0 3.535 3.1z"/>
    </g>
</svg>
