<svg xmlns="http://www.w3.org/2000/svg" width="23" height="32" viewBox="0 0 23 32">
    <g fill="#5D94F7" fill-rule="nonzero">
        <path d="M1.679 29.267h21.179V32H1.679zM9.169 23.867c-1.679.8-2.97 2.266-3.68 4.066h13.623c-.71-1.933-2.13-3.4-4.003-4.2A8.81 8.81 0 0 0 20.404 17c.71-4.333-1.68-8.467-5.553-9.867L15.948 4c.194-.533-.064-1.067-.58-1.267l-.582-.2.323-.866c.13-.334-.064-.734-.387-.867L12.849.067c-.323-.134-.71.066-.84.4l-.322.866-.581-.2c-.517-.2-1.033.067-1.227.6l-2.841 8c-.194.534.065 1.067.581 1.267l.581.2-.323.933c-.129.334.065.734.388.867l1.872.733c.323.134.71-.066.84-.4l.323-.933.58.2c.517.2 1.034-.067 1.227-.6l.84-2.4c2.712 1 4.39 3.867 3.874 6.867-.84 4.933-6.715 6.933-10.202 3.266h3.81v-2.6H.323v2.6h4.132c1.033 1.934 2.712 3.4 4.714 4.134z"/>
    </g>
</svg>
