<svg xmlns="http://www.w3.org/2000/svg" width="21" height="24" viewBox="0 0 21 24">
    <path fill="#5186E2" fill-rule="nonzero" d="M19.681 15.48c-.046 0-.093-.024-.116-.024a1.66 1.66 0 0 0-.767.024 2.17 2.17 0 0 0-.488.216c-.093.072-.163.12-.233.192l-1.395-.84c.047-.144.047-.288.047-.432a1.72 1.72 0 0 0-1.21-1.656v-2.016c.698-.192 1.21-.864 1.21-1.656 0-.144-.024-.288-.047-.432l1.395-.84c.186.192.442.36.72.432.14.048.303.072.442.072.163 0 .303-.024.442-.072.698-.192 1.209-.864 1.209-1.656 0-.936-.744-1.704-1.674-1.704-.442 0-.86.192-1.162.48-.21.216-.372.48-.442.792-.023.216-.023.36-.023.504 0 .144.023.288.046.432l-1.394.84a1.57 1.57 0 0 0-1.163-.48c-.465 0-.86.192-1.162.48l-1.697-1.008c.023-.144.046-.288.046-.432a1.72 1.72 0 0 0-1.209-1.656V3.36c.28-.072.512-.24.721-.432.21-.216.372-.48.442-.792.023-.144.046-.288.046-.432 0-.936-.744-1.704-1.65-1.704C9.708 0 8.94.768 8.94 1.704c0 .144.023.288.046.432.07.312.233.576.442.792.186.192.442.36.72.432v1.68c-.697.192-1.208.864-1.208 1.656 0 .144.023.288.046.432L7.29 8.136a1.57 1.57 0 0 0-1.162-.48c-.442 0-.86.192-1.162.48l-1.395-.84c0-.024.023-.072.023-.096a1.716 1.716 0 0 0-.023-.768 1.523 1.523 0 0 0-.233-.528c-.07-.096-.14-.192-.209-.264-.558-.552-1.418-.672-2.092-.192C.27 5.976.06 7.056.572 7.824c.232.336.558.576.93.696.046 0 .093.024.116.024.116.024.21.024.325.024.14 0 .303-.024.442-.072a2.17 2.17 0 0 0 .488-.216c.093-.072.163-.12.233-.192l1.395.84c-.024.144-.047.288-.047.432 0 .792.512 1.44 1.209 1.656v2.016c-.697.192-1.209.864-1.209 1.656 0 .144.023.288.047.432l-1.395.84a2.013 2.013 0 0 0-.72-.432c-.047 0-.094-.024-.117-.024a1.66 1.66 0 0 0-.767.024 2.17 2.17 0 0 0-.489.216c-.767.528-.976 1.608-.464 2.376a1.62 1.62 0 0 0 2.301.48c.093-.072.163-.12.232-.192a1.58 1.58 0 0 0 .442-.792c.07-.288.07-.576 0-.84l1.395-.84c.302.312.697.48 1.162.48.465 0 .86-.192 1.163-.48l1.697 1.008c-.023.144-.047.288-.047.432 0 .792.512 1.44 1.21 1.656v1.608a2.17 2.17 0 0 0-.489.216c-.093.072-.163.12-.232.192a1.58 1.58 0 0 0-.442.792 1.76 1.76 0 0 0 .232 1.392c.326.48.837.768 1.395.768.326 0 .651-.096.93-.288.604-.408.86-1.176.674-1.848a1.523 1.523 0 0 0-.232-.528c-.07-.096-.14-.192-.21-.264a1.506 1.506 0 0 0-.72-.432v-1.68c.697-.192 1.209-.864 1.209-1.656 0-.144-.024-.288-.047-.432l1.697-1.008c.302.312.72.48 1.163.48.441 0 .86-.192 1.162-.48l1.395.84c0 .024-.023.072-.023.096-.047.264-.047.504.023.768.046.192.116.36.232.528.07.096.14.192.21.264.325.312.743.48 1.162.48.325 0 .65-.096.93-.288.767-.528.953-1.608.442-2.376-.163-.336-.489-.576-.884-.696zm-5.045-2.472c-.697.192-1.208.864-1.208 1.656 0 .144.023.288.046.432l-1.697 1.008a1.57 1.57 0 0 0-1.162-.48c-.465 0-.86.192-1.163.48l-1.697-1.008c.023-.144.047-.288.047-.432a1.72 1.72 0 0 0-1.21-1.656v-2.016c.698-.192 1.21-.864 1.21-1.656 0-.144-.024-.288-.047-.432l1.697-1.008c.302.312.698.48 1.163.48.441 0 .86-.192 1.162-.48l1.697 1.008a2.727 2.727 0 0 0-.046.432c0 .792.511 1.44 1.208 1.656v2.016z"/>
</svg>
