<?xml version="1.0" encoding="UTF-8" standalone="no"?>
<svg
  xmlns:dc="http://purl.org/dc/elements/1.1/"
  xmlns:cc="http://creativecommons.org/ns#"
  xmlns:rdf="http://www.w3.org/1999/02/22-rdf-syntax-ns#"
  xmlns:svg="http://www.w3.org/2000/svg"
  xmlns="http://www.w3.org/2000/svg"
  xmlns:sodipodi="http://sodipodi.sourceforge.net/DTD/sodipodi-0.dtd"
  xmlns:inkscape="http://www.inkscape.org/namespaces/inkscape"
  data-name="Layer 1"
  viewBox="0 0 28.690725 37"
  x="0px"
  y="0px"
  version="1.1"
  id="svg901"
  sodipodi:docname="negative-stain-protocol.svg"
  width="28.690725"
  height="37"
  style="fill:#74a7eb"
  inkscape:version="0.92.2 (5c3e80d, 2017-08-06)">
  <metadata
    id="metadata907">
    <rdf:RDF>
      <cc:Work
        rdf:about="">
        <dc:format>image/svg+xml</dc:format>
        <dc:type
          rdf:resource="http://purl.org/dc/dcmitype/StillImage" />
      </cc:Work>
    </rdf:RDF>
  </metadata>
  <defs
    id="defs905" />
  <sodipodi:namedview
    pagecolor="#ffffff"
    bordercolor="#666666"
    borderopacity="1"
    objecttolerance="10"
    gridtolerance="10"
    guidetolerance="10"
    inkscape:pageopacity="0"
    inkscape:pageshadow="2"
    inkscape:window-width="1920"
    inkscape:window-height="1017"
    id="namedview903"
    showgrid="false"
    inkscape:zoom="8.48"
    inkscape:cx="26"
    inkscape:cy="33.53"
    inkscape:window-x="-4"
    inkscape:window-y="-4"
    inkscape:window-maximized="1"
    inkscape:current-layer="svg901" />
  <title
    id="title881">ALL</title>
  <path
    d="M 8.772741,12.706681 H 5.462273 a 1.1034894,1.1034894 0 0 1 -1.10349,-1.10349 V 8.292723 A 1.1034894,1.1034894 0 0 1 5.462273,7.189234 H 8.772741 A 1.1034894,1.1034894 0 0 1 9.87623,8.292723 v 3.310468 a 1.1034894,1.1034894 0 0 1 -1.103489,1.10349 z M 5.462273,8.292723 v 3.310468 H 8.772741 V 8.292723 Z"
    id="path883"
    inkscape:connector-curvature="0"
    style="stroke-width:0.5517447" />
  <rect
    x="6.1519547"
    y="8.9824057"
    width="1.9311064"
    height="1.9311064"
    id="rect885"
    style="stroke-width:0.5517447" />
  <path
    d="m 20.414554,10.499702 h -8.408589 a 0.551745,0.551745 0 0 1 0,-1.10349 h 8.408589 a 0.551745,0.551745 0 0 1 0,1.10349 z"
    id="path887"
    inkscape:connector-curvature="0"
    style="stroke-width:0.5517447" />
  <path
    d="M 8.772741,19.879362 H 5.462273 a 1.1034894,1.1034894 0 0 1 -1.10349,-1.10349 v -3.310468 a 1.1034894,1.1034894 0 0 1 1.10349,-1.103489 h 3.310468 a 1.1034894,1.1034894 0 0 1 1.103489,1.103489 v 3.310468 a 1.1034894,1.1034894 0 0 1 -1.103489,1.10349 z M 5.462273,15.465404 v 3.310468 h 3.310468 v -3.310468 z"
    id="path889"
    inkscape:connector-curvature="0"
    style="stroke-width:0.5517447" />
  <path
    d="m 20.414554,17.672383 h -8.408589 a 0.55174471,0.55174471 0 0 1 0,-1.103489 h 8.408589 a 0.55174471,0.55174471 0 0 1 0,1.103489 z"
    id="path891"
    inkscape:connector-curvature="0"
    style="stroke-width:0.5517447" />
  <path
    d="M 8.772741,27.052043 H 5.462273 a 1.1034894,1.1034894 0 0 1 -1.10349,-1.103489 v -3.310469 a 1.1034894,1.1034894 0 0 1 1.10349,-1.103489 h 3.310468 a 1.1034894,1.1034894 0 0 1 1.103489,1.103489 v 3.310469 A 1.1034894,1.1034894 0 0 1 8.772741,27.052043 Z M 5.462273,22.638085 v 3.310469 h 3.310468 v -3.310469 z"
    id="path893"
    inkscape:connector-curvature="0"
    style="stroke-width:0.5517447" />
  <path
    d="m 20.414554,24.845064 h -8.408589 a 0.55174471,0.55174471 0 0 1 0,-1.103489 h 8.408589 a 0.55174471,0.55174471 0 0 1 0,1.103489 z"
    id="path895"
    inkscape:connector-curvature="0"
    style="stroke-width:0.5517447" />
  <path
    d="M 24.276767,34.241276 H 1.655234 A 1.6552341,1.6552341 0 0 1 0,32.586042 V 1.655234 A 1.6552341,1.6552341 0 0 1 1.655234,0 h 22.621533 a 1.6552341,1.6552341 0 0 1 1.655234,1.655234 v 30.930808 a 1.6552341,1.6552341 0 0 1 -1.655234,1.655234 z M 1.655234,1.103489 A 0.55174471,0.55174471 0 0 0 1.103489,1.655234 v 30.930808 a 0.55174471,0.55174471 0 0 0 0.551745,0.551745 h 22.621533 a 0.55174471,0.55174471 0 0 0 0.551745,-0.551745 V 1.655234 A 0.55174471,0.55174471 0 0 0 24.276767,1.103489 Z"
    id="path897"
    inkscape:connector-curvature="0"
    style="stroke-width:0.5517447" />
  <path
    d="M 27.587235,37 H 3.862213 A 1.1034894,1.1034894 0 0 1 2.758724,35.896511 v -2.499404 h 1.103489 v 2.493886 H 27.587235 V 3.862213 H 24.828512 V 2.758724 h 2.758723 a 1.1034894,1.1034894 0 0 1 1.10349,1.103489 V 35.896511 A 1.1034894,1.1034894 0 0 1 27.587235,37 Z"
    id="path899"
    inkscape:connector-curvature="0"
    style="stroke-width:0.5517447" />
</svg>
