<svg xmlns="http://www.w3.org/2000/svg" width="24" height="24" viewBox="0 0 24 24">
    <g fill="#5186E2" fill-rule="nonzero">
        <path d="M22.28 10.5c-.633 0-1.147.55-1.147 1.227 0 5.412-4.118 9.818-9.176 9.818-2.456 0-4.773-1.038-6.484-2.88l1.12-1.198c.289-.309.085-.835-.325-.835H2.095c-.253 0-.46.217-.46.492v4.46c0 .44.492.657.78.348L3.844 20.4c2.15 2.3 5.044 3.6 8.114 3.6 6.326 0 11.47-5.503 11.47-12.273 0-.676-.515-1.227-1.147-1.227zM2.475 12.273c0-5.412 4.118-9.818 9.174-9.818 2.442 0 4.763 1.048 6.478 2.884l-1.106 1.184c-.289.31-.086.836.325.836h4.167c.253 0 .46-.218.46-.493V2.411c0-.44-.491-.657-.78-.348l-1.44 1.542C17.603 1.315 14.7 0 11.649 0 5.324 0 .182 5.503.182 12.273c0 .676.514 1.227 1.147 1.227.632 0 1.146-.55 1.146-1.227z"/>
    </g>
</svg>
