<?xml version="1.0" encoding="UTF-8" standalone="no"?>
<svg
   xmlns:dc="http://purl.org/dc/elements/1.1/"
   xmlns:cc="http://creativecommons.org/ns#"
   xmlns:rdf="http://www.w3.org/1999/02/22-rdf-syntax-ns#"
   xmlns:svg="http://www.w3.org/2000/svg"
   xmlns="http://www.w3.org/2000/svg"
   xmlns:sodipodi="http://sodipodi.sourceforge.net/DTD/sodipodi-0.dtd"
   xmlns:inkscape="http://www.inkscape.org/namespaces/inkscape"
   width="34"
   height="34"
   viewBox="0 0 34 34"
   version="1.1"
   id="svg4784"
   sodipodi:docname="protein_icon.svg"
   inkscape:version="0.92.2 (5c3e80d, 2017-08-06)">
  <metadata
     id="metadata4788">
    <rdf:RDF>
      <cc:Work
         rdf:about="">
        <dc:format>image/svg+xml</dc:format>
        <dc:type
           rdf:resource="http://purl.org/dc/dcmitype/StillImage" />
        <dc:title></dc:title>
      </cc:Work>
    </rdf:RDF>
  </metadata>
  <sodipodi:namedview
     pagecolor="#ffffff"
     bordercolor="#666666"
     borderopacity="1"
     objecttolerance="10"
     gridtolerance="10"
     guidetolerance="10"
     inkscape:pageopacity="0"
     inkscape:pageshadow="2"
     inkscape:window-width="1920"
     inkscape:window-height="1018"
     id="namedview4786"
     showgrid="false"
     inkscape:zoom="3.0786341"
     inkscape:cx="-58.710874"
     inkscape:cy="-41.182436"
     inkscape:window-x="-8"
     inkscape:window-y="-8"
     inkscape:window-maximized="1"
     inkscape:current-layer="g4782" />
  <defs
     id="defs4648">
    <rect
       id="a"
       width="235"
       height="40"
       y="20"
       rx="5"
       x="0" />
  </defs>
  <g
     id="g4782"
     style="fill:none;fill-rule:evenodd"
     transform="translate(-402.19414,-315.35401)">
    <g
       id="g4829"
       transform="matrix(1.3898029,0,0,1.3898029,-156.77642,-140.17919)">
      <path
         inkscape:connector-curvature="0"
         id="path4722"
         d="m 419.37786,334.23221 c -0.083,-1.014 -0.33,-1.39 0,-3.03 -3.585,0.432 -5.644,0.895 -9.034,2.116 l -0.096,-1.058 -2.725,3.345 3.824,1.226 -0.286,-0.963 c 3.467,-1.424 4.876,-1.636 8.317,-1.636 z"
         style="fill:#5186e2;fill-opacity:1;fill-rule:nonzero" />
      <path
         inkscape:connector-curvature="0"
         id="path4724"
         d="m 419.37786,331.20321 0.05,0.01 0.013,-0.067 -0.069,0.008 0.006,0.05 z m 0,3.03 v 0.05 h 0.054 l -0.004,-0.055 z m -8.315,1.637 -0.019,-0.046 -0.042,0.017 0.013,0.043 z m 0.285,0.961 -0.015,0.048 0.09,0.029 -0.027,-0.091 z m -3.821,-1.225 -0.039,-0.032 -0.047,0.057 0.07,0.022 z m 2.723,-3.346 0.05,-0.005 -0.012,-0.117 -0.077,0.091 0.039,0.03 z m 0.096,1.058 -0.05,0.005 0.006,0.064 0.06,-0.022 z m 8.985,-2.126 c -0.332,1.65 -0.083,2.038 0,3.044 l 0.095,-0.008 c -0.084,-1.022 -0.33,-1.385 -10e-4,-3.017 l -0.094,-0.02 z m 0.047,2.992 c -3.445,0 -4.863,0.213 -8.335,1.64 l 0.036,0.089 c 3.461,-1.423 4.861,-1.633 8.3,-1.632 v -0.097 z m -8.363,1.698 0.287,0.962 0.091,-0.027 -0.287,-0.963 z m 0.347,0.903 -3.824,-1.226 -0.03,0.091 3.825,1.226 z m -3.802,-1.15 2.725,-3.345 -0.074,-0.06 -2.725,3.344 z m 2.64,-3.37 0.096,1.058 0.095,-0.01 -0.095,-1.058 z m 0.16,1.099 c 3.387,-1.22 5.441,-1.682 9.024,-2.115 l -0.012,-0.096 c -3.587,0.434 -5.652,0.898 -9.045,2.12 l 0.033,0.09 z m 8.695,7.997 c -4.62,-0.732 -7.313,-0.181 -12.255,1.291 v -2.065 c 4.841,-2.1 7.569,-2.507 12.46,-1.937 v -0.903 l 3.37,2.84 -3.677,2.065 0.102,-1.29 z"
         style="fill:#5186e2;fill-opacity:1;fill-rule:nonzero" />
      <path
         style="fill:#5186e2;fill-opacity:1;fill-rule:nonzero;stroke:#5186e2;stroke-opacity:1"
         inkscape:connector-curvature="0"
         id="path4726"
         d="m 403.73986,335.55221 -0.084,-0.12 z m 1.017,6.068 0.077,-0.125 z m 2.043,1.032 h -0.144 v 0.194 l 0.185,-0.055 z m 12.255,-1.29 0.143,0.011 -0.143,-0.012 z m 0.204,-2.712 0.143,0.012 v -0.012 z m -12.46,1.937 -0.056,-0.133 -0.087,0.038 v 0.095 h 0.144 z m 12.46,-2.84 0.092,-0.111 -0.235,-0.199 v 0.31 z m 3.37,2.84 0.07,0.126 0.182,-0.102 -0.16,-0.135 -0.092,0.11 z m -3.676,2.065 -0.143,-0.011 -0.021,0.269 0.234,-0.132 z m -10.779,-7.362 c -0.864,0.364 -1.504,0.124 -2.187,-0.089 -0.34,-0.106 -0.698,-0.204 -1.077,-0.198 -0.377,0.007 -0.8,0.125 -1.254,0.429 l 0.16,0.24 c 0.414,-0.281 0.758,-0.376 1.099,-0.38 0.338,-0.008 0.651,0.08 0.987,0.185 0.67,0.209 1.41,0.49 2.383,0.079 l -0.11,-0.266 z m -4.518,0.142 c -0.944,0.637 -1.11,1.979 -0.851,3.236 0.26,1.263 0.964,2.532 1.88,3.076 l 0.145,-0.249 c -0.819,-0.486 -1.493,-1.666 -1.744,-2.886 -0.253,-1.227 -0.062,-2.403 0.73,-2.937 z m 1.028,6.312 c 0.396,0.235 0.938,0.3 1.363,0.31 a 5.86,5.86 0 0 0 0.77,-0.033 h 10e-4 l -0.018,-0.143 -0.019,-0.143 h -0.003 l -0.01,0.001 a 2.94,2.94 0 0 1 -0.195,0.018 c -0.133,0.01 -0.314,0.017 -0.519,0.012 -0.415,-0.01 -0.894,-0.075 -1.224,-0.27 z m 2.157,1.047 c 4.936,-1.471 7.597,-2.018 12.192,-1.287 l 0.044,-0.285 c -4.645,-0.735 -7.37,-0.18 -12.318,1.295 z m 12.357,-1.419 0.204,-2.71 -0.286,-0.023 -0.204,2.711 z m 0.078,-2.865 c -4.91,-0.57 -7.674,-0.16 -12.533,1.947 l 0.114,0.265 c 4.823,-2.094 7.514,-2.494 12.386,-1.925 z m -12.62,2.08 v 1.29 h 0.287 v -1.29 z m 0,1.29 v 0.259 h 0.287 v -0.258 h -0.287 z m 12.511,-4.02 3.37,2.84 0.185,-0.22 -3.37,-2.841 z m 3.393,2.604 -3.677,2.065 0.14,0.252 3.676,-2.065 -0.14,-0.252 z m -3.464,2.203 0.102,-1.291 -0.286,-0.023 -0.102,1.29 z m 0.02,-4.917 v 0.903 h 0.287 v -0.903 z m -12.46,4.389 v 0.516 h 0.287 v -0.516 z" />
      <path
         inkscape:connector-curvature="0"
         id="path4728"
         d="m 420.96486,345.43521 v 2.292 c -1.894,-0.328 -2.913,-0.336 -4.64,0 l 0.129,0.603 -3.481,-1.327 2.965,-2.291 0.129,0.723 c 1.698,-0.395 3.086,-0.314 4.898,0 z"
         style="fill:#5186e2;fill-opacity:1;fill-rule:nonzero" />
      <path
         style="fill:#5186e2;fill-opacity:1;fill-rule:nonzero;stroke:#5186e2;stroke-opacity:1"
         inkscape:connector-curvature="0"
         id="path4730"
         d="m 420.96486,345.43521 h 0.144 v -0.121 l -0.12,-0.02 z m -4.898,0 -0.141,0.026 0.026,0.15 0.147,-0.035 -0.032,-0.14 z m -0.13,-0.723 0.142,-0.026 -0.042,-0.233 -0.186,0.144 0.087,0.115 z m -2.964,2.291 -0.087,-0.114 -0.205,0.157 0.241,0.092 0.05,-0.135 z m 3.48,1.327 -0.05,0.135 0.246,0.094 -0.055,-0.26 -0.14,0.03 z m -0.128,-0.603 -0.028,-0.142 -0.143,0.028 0.03,0.144 0.14,-0.03 z m 4.64,0 -0.024,0.142 0.168,0.029 v -0.171 z m -0.089,-6.148 c 1.608,-0.797 3.37,-1.649 4.36,-1.9 0.248,-0.062 0.428,-0.082 0.538,-0.064 0.054,0.008 0.076,0.023 0.084,0.031 0.004,0.005 0.013,0.015 0.013,0.049 0,0.083 -0.055,0.24 -0.224,0.496 -0.167,0.252 -0.423,0.57 -0.79,0.974 l 0.21,0.195 a 8.89,8.89 0 0 0 0.819,-1.01 c 0.171,-0.258 0.272,-0.479 0.272,-0.655 a 0.348,0.348 0 0 0 -0.099,-0.254 0.43,0.43 0 0 0 -0.24,-0.111 c -0.171,-0.028 -0.399,0.005 -0.654,0.07 -1.026,0.26 -2.82,1.13 -4.416,1.92 z m 3.98,-0.414 c -1.502,1.655 -1.868,2.906 -2.173,3.78 -0.153,0.44 -0.286,0.763 -0.525,1.01 -0.236,0.243 -0.59,0.427 -1.219,0.544 l 0.053,0.284 c 0.66,-0.123 1.08,-0.325 1.371,-0.627 0.289,-0.298 0.438,-0.679 0.59,-1.116 0.308,-0.881 0.651,-2.078 2.114,-3.68 l -0.21,-0.195 z m -3.747,5.476 v -1.206 h -0.287 v 1.206 z m -0.12,-1.348 c -1.82,-0.315 -3.236,-0.397 -4.955,0.002 l 0.065,0.281 c 1.678,-0.392 3.038,-0.311 4.842,0.002 l 0.049,-0.285 z m -4.781,0.117 -0.129,-0.724 -0.282,0.051 0.129,0.724 z m -0.357,-0.813 -2.965,2.292 0.174,0.229 2.965,-2.292 z m -2.929,2.541 3.48,1.327 0.102,-0.27 -3.48,-1.327 z m 3.672,1.161 -0.13,-0.603 -0.28,0.061 0.13,0.603 0.28,-0.06 z m -0.242,-0.43 c 1.713,-0.335 2.706,-0.326 4.59,0 l 0.048,-0.285 c -1.906,-0.328 -2.951,-0.337 -4.693,0 l 0.055,0.284 z m 4.757,-0.142 v -1.086 h -0.287 v 1.086 z" />
      <path
         style="fill:#5186e2;fill-opacity:1;fill-rule:nonzero;stroke:#5186e2;stroke-opacity:1"
         inkscape:connector-curvature="0"
         id="path4732"
         d="m 413.04086,346.86921 c -1.12,0.5 -2.695,0.474 -4.101,0.185 a 9.12,9.12 0 0 1 -1.871,-0.585 c -0.527,-0.237 -0.901,-0.492 -1.071,-0.72 l -0.23,0.173 c 0.216,0.29 0.648,0.57 1.184,0.81 a 9.535,9.535 0 0 0 1.93,0.605 c 1.43,0.294 3.075,0.332 4.275,-0.204 z" />
    </g>
  </g>
</svg>
