<svg xmlns="http://www.w3.org/2000/svg" width="34" height="33" viewBox="0 0 34 33">
    <path fill="#629BE8" fill-rule="nonzero" stroke="#529AE7" d="M19.71 1.414c-1.027.028-1.962.354-2.393 1.155-.43.802-.301 1.933.477 3.45.395.77.975 1.66 1.75 2.667-.941.132-1.841.273-3.028.36-1.188.087-2.099.078-3.05.083.613-1.108 1.05-2.07 1.323-2.89.537-1.614.493-2.75-.055-3.48-.549-.73-1.523-.916-2.543-.795-1.019.121-2.14.539-3.168 1.118-1.028.58-1.96 1.318-2.577 2.119-.617.8-.939 1.716-.565 2.544.374.829 1.36 1.435 3.06 1.787.866.18 1.938.29 3.229.328-.48.8-.929 1.575-1.6 2.535-.67.96-1.246 1.65-1.834 2.378-.506-1.158-1.004-2.092-1.491-2.812-.958-1.415-1.897-2.09-2.824-2.127-.927-.037-1.683.59-2.222 1.443-.538.853-.902 1.97-1.079 3.114-.177 1.146-.167 2.317.09 3.287.256.97.79 1.786 1.687 2.018.897.231 1.999-.143 3.341-1.22.683-.548 1.44-1.298 2.275-2.259.342.866.683 1.69 1.034 2.801.351 1.11.545 1.98.762 2.883-1.244-.336-2.303-.54-3.183-.617-1.732-.152-2.857.144-3.465.828-.607.684-.577 1.652-.229 2.594.348.943 1.016 1.917 1.823 2.766.808.849 1.753 1.571 2.69 1.98.937.409 1.925.51 2.67-.03.744-.54 1.13-1.613 1.104-3.309-.013-.862-.141-1.907-.391-3.143.907.279 1.78.533 2.888.958 1.109.424 1.926.817 2.786 1.214-1.045.74-1.868 1.422-2.479 2.046-1.201 1.225-1.666 2.269-1.496 3.159.17.89.964 1.47 1.936 1.792.972.322 2.168.42 3.352.333 1.184-.087 2.352-.357 3.264-.817.913-.46 1.609-1.15 1.64-2.054.032-.905-.587-1.869-1.962-2.906-.7-.527-1.617-1.082-2.763-1.661.79-.518 1.537-1.026 2.569-1.607 1.031-.581 1.855-.959 2.71-1.366-.06 1.258-.026 2.31.093 3.165.233 1.68.779 2.685 1.598 3.11.818.426 1.779.182 2.643-.358.865-.541 1.689-1.393 2.358-2.35.668-.957 1.18-2.016 1.38-2.999.2-.982.082-1.944-.623-2.532-.705-.588-1.863-.717-3.552-.315-.858.205-1.875.558-3.053 1.071.077-.924.136-1.811.313-2.96.178-1.149.389-2.013.595-2.919.971.83 1.835 1.459 2.594 1.902 1.492.87 2.638 1.08 3.49.72.851-.359 1.254-1.244 1.36-2.24.105-.996-.063-2.156-.413-3.263-.35-1.106-.88-2.157-1.542-2.922-.663-.766-1.508-1.275-2.419-1.104-.91.17-1.736.975-2.466 2.514-.372.782-.721 1.777-1.045 2.996-.693-.635-1.367-1.233-2.177-2.085-.81-.851-1.372-1.55-1.969-2.273 1.27-.224 2.314-.49 3.141-.793 1.628-.596 2.511-1.34 2.754-2.213.243-.873-.215-1.732-.947-2.434-.733-.702-1.767-1.296-2.872-1.72-1.105-.422-2.279-.674-3.305-.645zm.02.693c.89-.025 1.99.202 3.023.598 1.033.395 2 .961 2.635 1.57.635.607.91 1.209.758 1.757-.152.548-.793 1.187-2.316 1.744-.85.31-2.033.578-3.442.81-.871-1.105-1.552-2.087-1.958-2.878-.728-1.419-.753-2.313-.483-2.816.27-.503.893-.76 1.783-.785zm-7.452.545c.883-.105 1.538.06 1.882.517.344.458.456 1.346-.047 2.855-.28.84-.804 1.91-1.497 3.13-1.429-.024-2.64-.117-3.527-.3-1.59-.33-2.323-.868-2.558-1.388-.234-.52-.052-1.155.482-1.849.535-.694 1.405-1.393 2.366-1.934.96-.541 2.016-.926 2.9-1.031zM28.73 8.748c.572-.107 1.165.207 1.74.87.574.663 1.08 1.645 1.406 2.68.328 1.034.478 2.124.386 2.987-.091.864-.401 1.45-.936 1.675-.534.226-1.446.135-2.842-.68-.778-.453-1.73-1.19-2.794-2.12.341-1.354.703-2.486 1.084-3.289.684-1.44 1.385-2.015 1.956-2.123zm-8.637.571c.665.822 1.354 1.66 2.292 2.646.938.986 1.742 1.72 2.533 2.427a39.98 39.98 0 0 0-.691 3.397 39.92 39.92 0 0 0-.367 3.446c-.969.45-1.96.92-3.153 1.592a42.03 42.03 0 0 0-2.99 1.868 42.411 42.411 0 0 0-3.241-1.413 42.597 42.597 0 0 0-3.36-1.115 40.04 40.04 0 0 0-.89-3.353 40.238 40.238 0 0 0-1.202-3.26 40.942 40.942 0 0 0 2.133-2.768 40.695 40.695 0 0 0 1.863-2.95c1.073.005 2.174 0 3.549-.1s2.464-.255 3.524-.417zm-15.7 1.209c.581.023 1.362.49 2.257 1.815.5.738 1.03 1.805 1.575 3.094-.91 1.074-1.739 1.941-2.438 2.503-1.257 1.008-2.145 1.23-2.708 1.085-.563-.145-.958-.68-1.18-1.52-.223-.841-.24-1.94-.075-3.01.165-1.07.514-2.115.98-2.855.467-.739 1.007-1.135 1.588-1.112zm25.333 9.732c.477.043.814.18 1.035.364.442.369.56 1.018.387 1.87-.173.851-.646 1.849-1.27 2.743-.626.895-1.405 1.688-2.154 2.157-.75.469-1.412.597-1.926.33-.514-.267-1.009-1.019-1.227-2.591-.121-.877-.125-2.063-.042-3.454 1.297-.583 2.43-1.013 3.31-1.223.79-.188 1.41-.239 1.887-.196zM7.062 21.975c.902.08 2.088.34 3.46.728.294 1.364.472 2.537.486 3.421.025 1.587-.35 2.403-.818 2.742-.467.338-1.142.307-1.955-.047-.812-.355-1.704-1.026-2.458-1.82-.755-.793-1.374-1.711-1.676-2.528-.301-.817-.283-1.476.098-1.905.38-.43 1.243-.733 2.863-.59zm10.716 3.506c1.276.626 2.327 1.223 3.044 1.763 1.287.97 1.707 1.766 1.687 2.334-.02.567-.466 1.062-1.256 1.46-.79.4-1.885.66-2.991.742-1.107.08-2.228-.019-3.07-.298-.843-.28-1.36-.704-1.467-1.262-.106-.558.188-1.406 1.313-2.553.626-.64 1.573-1.382 2.74-2.186z"/>
</svg>
