<?xml version="1.0" encoding="UTF-8" standalone="no"?>
<svg
   xmlns:dc="http://purl.org/dc/elements/1.1/"
   xmlns:cc="http://creativecommons.org/ns#"
   xmlns:rdf="http://www.w3.org/1999/02/22-rdf-syntax-ns#"
   xmlns:svg="http://www.w3.org/2000/svg"
   xmlns="http://www.w3.org/2000/svg"
   xmlns:sodipodi="http://sodipodi.sourceforge.net/DTD/sodipodi-0.dtd"
   xmlns:inkscape="http://www.inkscape.org/namespaces/inkscape"
   version="1.1"
   x="0px"
   y="0px"
   viewBox="0 0 24.00021 24.258001"
   enable-background="new 0 0 100 100"
   xml:space="preserve"
   id="svg8"
   sodipodi:docname="software.svg"
   width="24.00021"
   height="24.258001"
   inkscape:version="0.92.2 5c3e80d, 2017-08-06"><metadata
     id="metadata14"><rdf:RDF><cc:Work
         rdf:about=""><dc:format>image/svg+xml</dc:format><dc:type
           rdf:resource="http://purl.org/dc/dcmitype/StillImage" /><dc:title></dc:title></cc:Work></rdf:RDF></metadata><defs
     id="defs12" /><sodipodi:namedview
     pagecolor="#ffffff"
     bordercolor="#666666"
     borderopacity="1"
     objecttolerance="10"
     gridtolerance="10"
     guidetolerance="10"
     inkscape:pageopacity="0"
     inkscape:pageshadow="2"
     inkscape:window-width="1920"
     inkscape:window-height="1178"
     id="namedview10"
     showgrid="false"
     fit-margin-top="0"
     fit-margin-left="0"
     fit-margin-right="0"
     fit-margin-bottom="0"
     inkscape:zoom="1.888"
     inkscape:cx="-47.322223"
     inkscape:cy="-0.37103"
     inkscape:window-x="1458"
     inkscape:window-y="480"
     inkscape:window-maximized="0"
     inkscape:current-layer="svg8" /><path
     d="m 23.867846,0.92197272 c -0.11761,-0.135455 -0.294431,-0.204128 -0.472874,-0.182229 l -1.751716,0.209806 -9.790036,-0.633202 c -0.261446,-0.01893 -0.494233,0.153569 -0.558581,0.405552 l -0.112203,-0.328497 c -0.06705,-0.236302 -0.274694,-0.395279 -0.530192,-0.39338599637 L 6.316348,0.07896672 c -0.159788,0.003 -0.310112,0.07652 -0.41096,0.200884 -0.100577,0.12464 -0.140862,0.287131 -0.109769,0.444215 l 0.09138,0.46530398 -0.106254,0.03109 c -0.421775,0.0265 -0.405283,0.606166 -0.337961,0.749191 l 0.937367,2.182413 C 4.204497,4.2658887 2.707739,5.5550047 1.877438,7.1523397 1.070388,8.7047947 0.820027,10.609269 1.172317,12.514825 1.476211,14.159475 2.211613,15.61622 3.199809,16.708507 1.076336,17.078101 0,17.657771 0,18.436161 v 3.757308 c 0,2.006673 7.035253,2.064532 7.837166,2.064532 0.801912,0 7.837165,-0.05786 7.837165,-2.064532 v -0.994955 l 2.471166,0.487474 c 0.03461,0.0068 0.19764,0.0043 0.242791,-0.0076 l 4.372937,-1.156095 c 0.237113,-0.06273 0.402578,-0.277397 0.402578,-0.522892 V 4.4927267 l 0.818134,-3.077332 c 0.04623,-0.173306 0.0035,-0.357968 -0.114095,-0.49342198 z M 18.955795,1.8596097 c -0.109229,0.01514 -0.198721,0.09517 -0.225757,0.201965 l -0.493152,1.960981 -0.485041,-1.524336 c -0.03353,-0.105444 -0.127884,-0.179795 -0.237924,-0.187636 l -5.408988,-0.393386 0.125992,-0.492611 z M 6.690267,2.0810407 c 0.01055,-0.0035 0.01974,-0.0092 0.02974,-0.01352 l 10.572211,0.768927 0.642665,2.020463 -10.473526,-0.971704 z m 3.565077,-0.992251 0.200613,0.708365 -3.403937,-0.247658 c -0.0011,-0.02785 -0.003,-0.0557 -0.0087,-0.08381 L 6.98114,1.1482747 Z m -7.418365,6.562379 c 0.673217,-1.295064 2.111035,-2.472788 3.609957,-2.420607 2.375185,0.08246 4.594639,2.302726 5.158897,5.3562663 0.627795,3.397177 -0.963322,6.549671 -3.546421,7.026871 -0.218998,0.04028 -0.442592,0.0611 -0.664835,0.0611 -2.376808,0 -4.594639,-2.302727 -5.158897,-5.356266 C 1.926919,10.648468 2.14051,8.9911097 2.836979,7.6511647 Z M 7.394306,18.756005 c 0.287943,0 0.578048,-0.02677 0.861394,-0.07895 0.405552,-0.07489 0.791368,-0.201965 1.154743,-0.373379 0.334716,0.07706 0.44827,0.156273 0.46287,0.159788 -0.063,0.118421 -0.797586,0.33066 -2.036143,0.33066 -1.136088,0 -1.842019,-0.177632 -2.000726,-0.298757 0.504508,0.169521 1.02767,0.260635 1.557862,0.260635 z m -3.16412,-1.110132 c 0.417179,0.30822 0.860042,0.560474 1.32129,0.745135 -0.01054,0.02623 -0.01839,0.0538 -0.01839,0.08517 0,0.571559 2.068318,0.588051 2.304079,0.588051 0.235761,0 2.304078,-0.01649 2.304078,-0.588051 0,-0.146539 -0.126262,-0.261987 -0.385275,-0.354723 0.286861,-0.164925 0.55777,-0.358238 0.810835,-0.578588 l -0.0019,0.0219 c 2.026681,-0.0119 3.955218,0.571018 3.955218,0.873019 0,0.525866 -2.782901,0.980896 -6.682963,0.980896 -3.865726,0 -6.668904,-0.518296 -6.668904,-0.971163 0,-0.383652 2.146183,-0.854904 3.06192,-0.801642 z m 10.362676,3.959814 c -0.943585,0.532355 -3.459362,0.999552 -6.755692,0.999552 -3.29633,0 -5.812107,-0.467197 -6.755963,-0.999552 v -0.272261 c 1.256131,0.635636 4.068502,0.971704 6.755692,0.971704 2.687191,0 5.499562,-0.336338 6.755693,-0.971704 v 0.272261 z m 0,-0.570207 c -0.943585,0.532356 -3.459362,0.999552 -6.755692,0.999552 -3.29633,0 -5.812107,-0.467467 -6.755963,-0.999552 v -0.27226 c 1.256131,0.635635 4.068502,0.971974 6.755692,0.971974 2.687191,0 5.499562,-0.336339 6.755693,-0.971974 v 0.27226 z m 0,-0.570206 c -0.943585,0.532355 -3.459362,0.999822 -6.755692,0.999822 -3.29633,0 -5.812107,-0.467467 -6.755693,-0.999822 v -0.272261 c 1.256131,0.635636 4.068502,0.971974 6.755693,0.971974 2.68719,0 5.499561,-0.336338 6.755692,-0.971974 z m 0,-0.570477 c -0.943585,0.532355 -3.459362,0.999822 -6.755692,0.999822 -3.29633,0 -5.812107,-0.467467 -6.755693,-0.999822 v -0.303624 c 2.004511,0.875993 6.151149,0.909519 6.755693,0.909519 0.604543,0 4.751182,-0.03353 6.755692,-0.909519 z m -6.755692,3.28173 c -4.148802,0 -6.441795,-0.68241 -6.755693,-1.04957 v -0.223054 c 1.256131,0.635636 4.068502,0.971704 6.755693,0.971704 2.68719,0 5.499561,-0.336338 6.755692,-0.971704 v 0.223054 c -0.314168,0.367431 -2.607161,1.04957 -6.755692,1.04957 z m 7.837165,-4.740367 c 0,-0.922767 -1.421867,-1.549751 -4.22153,-1.867975 C 12.592948,14.991938 13.103133,12.737607 12.669192,10.39 12.152788,7.5954727 10.391609,5.3414127 8.259485,4.5024597 l 9.720281,0.901678 V 20.550981 l -2.305431,-0.45476 z m 2.846167,2.088595 V 5.3865637 l 3.561832,-0.599406 V 19.583062 Z m 3.593195,-16.2913123 -3.521007,0.592648 0.617251,-2.455215 3.522088,-0.462329 z M 7.084194,14.056464 c 0.649154,0.0073 1.363197,-0.527489 1.651139,-1.081473 C 9.022464,12.422628 9.111686,11.746437 8.986776,11.070517 8.748852,9.7827517 7.810944,8.8483597 6.756778,8.8483597 c -0.104362,0 -0.209265,0.0095 -0.312005,0.02839 -1.139062,0.210617 -1.852563,1.5373143 -1.590036,2.9572893 0.237924,1.288034 1.175561,2.210531 2.229457,2.222427 z M 8.454961,11.16866 c 0.103011,0.55777 0.03244,1.110673 -0.199532,1.556781 -0.220079,0.423667 -0.711068,0.755409 -1.06444,0.780553 V 9.4680437 C 7.794181,9.6878527 8.303014,10.3462 8.454961,11.16866 Z M 6.650253,9.3988297 V 13.43705 C 6.047061,13.217511 5.538228,12.559164 5.386281,11.736163 5.232442,10.903429 5.469011,9.4929177 6.650253,9.3988297 Z"
     id="path2"
     inkscape:connector-curvature="0"
     style="fill:#5186e2;fill-opacity:1;stroke-width:0.27036828" /></svg>