<?xml version="1.0" encoding="UTF-8" standalone="no"?>
<svg
   xmlns:dc="http://purl.org/dc/elements/1.1/"
   xmlns:cc="http://creativecommons.org/ns#"
   xmlns:rdf="http://www.w3.org/1999/02/22-rdf-syntax-ns#"
   xmlns:svg="http://www.w3.org/2000/svg"
   xmlns="http://www.w3.org/2000/svg"
   xmlns:sodipodi="http://sodipodi.sourceforge.net/DTD/sodipodi-0.dtd"
   xmlns:inkscape="http://www.inkscape.org/namespaces/inkscape"
   viewBox="0 0 37 36.992268"
   x="0px"
   y="0px"
   version="1.1"
   id="svg827"
   sodipodi:docname="surface-treatment-machine.svg"
   width="37"
   height="36.992268"
   style="fill:#74a7eb"
   inkscape:version="0.92.2 (5c3e80d, 2017-08-06)">
  <metadata
     id="metadata833">
    <rdf:RDF>
      <cc:Work
         rdf:about="">
        <dc:format>image/svg+xml</dc:format>
        <dc:type
           rdf:resource="http://purl.org/dc/dcmitype/StillImage" />
      </cc:Work>
    </rdf:RDF>
  </metadata>
  <defs
     id="defs831" />
  <sodipodi:namedview
     pagecolor="#ffffff"
     bordercolor="#666666"
     borderopacity="1"
     objecttolerance="10"
     gridtolerance="10"
     guidetolerance="10"
     inkscape:pageopacity="0"
     inkscape:pageshadow="2"
     inkscape:window-width="1397"
     inkscape:window-height="793"
     id="namedview829"
     showgrid="false"
     inkscape:zoom="6.2352941"
     inkscape:cx="16.223302"
     inkscape:cy="11.318328"
     inkscape:window-x="258"
     inkscape:window-y="70"
     inkscape:window-maximized="0"
     inkscape:current-layer="svg827" />
  <path
     style="fill:#74a7eb;fill-opacity:1;fill-rule:evenodd;stroke:none;stroke-width:0.55561596;stroke-opacity:1"
     d="m 9.5840922,0.00162477 c -0.753882,0.0536 -0.733761,0.9741373 -0.661759,1.52973583 0,4.4888314 0,8.9776614 0,13.4664934 -1.561097,0.08184 -3.157035,-0.141241 -4.694847,0.112114 -0.5900846,0.361802 -0.208859,1.462899 0.509575,1.28072 3.395031,-0.02787 6.8050928,0.08281 10.1908868,-0.05677 0.658823,-0.277988 0.371079,-1.493965 -0.390155,-1.324015 -1.407028,-0.0207 -2.814218,5.18e-4 -4.221314,-0.0082 -0.03456,-4.854392 0.06603,-9.7185726 -0.05059,-14.56678913 C 10.15847,0.16859397 9.8726042,-0.01954993 9.5840922,0.00162377 Z M 30.726585,10.000055 c -2.304553,-0.073134 -4.2937,2.172065 -4.024588,4.447345 0,3.823362 0,7.646724 0,11.470085 -2.551595,2.037861 -2.962985,6.167741 -0.873845,8.678151 1.82447,2.32591 5.286837,3.062061 7.878979,1.617565 2.549411,-1.347087 3.946378,-4.624459 2.990868,-7.392678 -0.354596,-1.124964 -1.035377,-2.142526 -1.934684,-2.905061 -0.04938,-4.225086 0.0978,-8.459036 -0.07528,-12.678454 -0.340753,-1.834503 -2.092643,-3.2763289 -3.961447,-3.236953 z m 0.07245,1.394146 c 1.546453,-0.01288 2.804016,1.556218 2.570573,3.061495 0.03321,4.008346 -0.06834,8.032879 0.05157,12.031266 0.378436,0.612398 1.091419,0.930799 1.414383,1.597936 1.381724,2.077252 0.79412,5.167462 -1.273127,6.576104 -1.978588,1.459063 -5.036573,1.08601 -6.573068,-0.848144 -1.655471,-1.928607 -1.448774,-5.210611 0.591333,-6.787584 0.80675,-0.513634 0.427915,-1.567235 0.517247,-2.355822 0.02347,-3.720882 -0.06487,-7.447167 0.04899,-11.164705 0.229267,-1.21983 1.410287,-2.163509 2.652096,-2.110546 z M 0.6952717,12.224942 c -0.7533169,0.05525 -0.7342608,0.97392 -0.6626842,1.530545 0.026462,6.931946 -0.055548,13.867135 0.042614,20.797043 0.2459581,1.59577 1.949571,2.660646 3.5028702,2.4007 4.4327135,-0.03386 8.8718583,0.07204 13.3005473,-0.0552 1.524249,-0.279954 2.550743,-1.90041 2.326877,-3.388935 -0.02365,-6.944859 0.04901,-13.895899 -0.03764,-20.83691 -0.235324,-0.750571 -1.590593,-0.432397 -1.339475,0.39543 -0.0604,7.096655 0.03934,14.197333 -0.04961,21.291648 -0.187611,0.998649 -1.344372,1.381352 -2.238647,1.200146 -4.32867,-0.03189 -8.6643418,0.06816 -12.988691,-0.05067 C 1.59265,35.27705 1.2626122,34.157673 1.4256261,33.2877 1.4017191,26.422685 1.4749808,19.550163 1.3879938,12.689792 1.2906512,12.407661 0.9948972,12.203436 0.6952717,12.224942 Z m 8.8882135,8.334521 c -0.803248,0.06833 -0.710319,1.056279 -0.661152,1.633351 0,1.877277 0,3.754555 0,5.631832 -0.835531,-0.432704 -1.166867,-1.568559 -2.151426,-1.710454 -0.658201,0.03464 -0.838395,1.027973 -0.274059,1.335072 1.005779,0.914446 1.84578,2.050447 2.963796,2.816201 0.7868158,0.08165 1.1333368,-0.816102 1.6835398,-1.216665 0.61421,-0.76747 1.605864,-1.280078 1.962004,-2.219018 0.02514,-0.659256 -0.971565,-0.997895 -1.316719,-0.395286 -0.490771,0.488161 -0.979021,0.97885 -1.468538,1.468266 -0.06423,-2.318489 0.101215,-4.667796 -0.08075,-6.965874 -0.122117,-0.236904 -0.3888648,-0.396826 -0.6566988,-0.377425 z m 21.1149698,2.777769 c -0.752925,0.05293 -0.734176,0.974061 -0.662771,1.529938 0,0.996214 0,1.992428 0,2.988642 -1.900508,0.401507 -2.872866,2.883973 -1.745668,4.461915 0.95736,1.517432 3.35199,1.750947 4.560876,0.408591 1.232162,-1.257585 0.997571,-3.607909 -0.563406,-4.495712 -0.306244,-0.295096 -1.027626,-0.203808 -0.864131,-0.776302 -0.04179,-1.253852 0.118991,-2.533086 -0.08216,-3.761098 -0.125475,-0.225023 -0.384239,-0.37301 -0.642736,-0.355974 z"
     id="path825"
     inkscape:connector-curvature="0" />
</svg>
