<?xml version="1.0" encoding="UTF-8" standalone="no"?>
<svg
   xmlns:dc="http://purl.org/dc/elements/1.1/"
   xmlns:cc="http://creativecommons.org/ns#"
   xmlns:rdf="http://www.w3.org/1999/02/22-rdf-syntax-ns#"
   xmlns:svg="http://www.w3.org/2000/svg"
   xmlns="http://www.w3.org/2000/svg"
   xmlns:sodipodi="http://sodipodi.sourceforge.net/DTD/sodipodi-0.dtd"
   xmlns:inkscape="http://www.inkscape.org/namespaces/inkscape"
   version="1.1"
   x="0px"
   y="0px"
   viewBox="0 0 36.999989 37"
   id="svg6"
   sodipodi:docname="noun_924678_ffffff.svg"
   width="36.999989"
   height="37"
   style="fill:#ffffff"
   inkscape:version="0.92.2 5c3e80d, 2017-08-06">
  <metadata
     id="metadata12">
    <rdf:RDF>
      <cc:Work
         rdf:about="">
        <dc:format>image/svg+xml</dc:format>
        <dc:type
           rdf:resource="http://purl.org/dc/dcmitype/StillImage" />
        <dc:title></dc:title>
      </cc:Work>
    </rdf:RDF>
  </metadata>
  <defs
     id="defs10" />
  <sodipodi:namedview
     pagecolor="#ffffff"
     bordercolor="#666666"
     borderopacity="1"
     objecttolerance="10"
     gridtolerance="10"
     guidetolerance="10"
     inkscape:pageopacity="0"
     inkscape:pageshadow="2"
     inkscape:window-width="843"
     inkscape:window-height="480"
     id="namedview8"
     showgrid="false"
     fit-margin-top="0"
     fit-margin-left="0"
     fit-margin-right="0"
     fit-margin-bottom="0"
     inkscape:zoom="2.36"
     inkscape:cx="18.499994"
     inkscape:cy="18.5"
     inkscape:window-x="0"
     inkscape:window-y="781"
     inkscape:window-maximized="0"
     inkscape:current-layer="svg6" />
  <g
     transform="matrix(0.41111097,0,0,0.41111097,-2.0555549,-393.58209)"
     id="g4">
    <path
       style="color:#000000;text-indent:0;text-transform:none;direction:ltr;baseline-shift:baseline;display:inline;overflow:visible;visibility:visible;fill:#ffffff;fill-opacity:1;stroke:none;enable-background:accumulate"
       d="m 50,957.36217 c -24.81728,0 -45,20.1827 -45,45.00003 0,24.8173 20.18272,45 45,45 24.81728,0 45,-20.1827 45,-45 0,-24.81733 -20.18272,-45.00003 -45,-45.00003 z m 0,6 c 21.57464,0 39,17.4254 39,39.00003 0,9.8827 -3.68214,18.8846 -9.71875,25.75 -4.22506,-12.0999 -15.7474,-20.75 -29.28125,-20.75 -13.53385,0 -25.05619,8.6501 -29.28125,20.75 C 14.68214,1021.2468 11,1012.2449 11,1002.3622 11,980.78757 28.42536,963.36217 50,963.36217 Z m 0,3 c -9.58493,0 -17,8.7448 -17,19 0,10.2552 7.41507,19.00003 17,19.00003 9.58493,0 17,-8.74483 17,-19.00003 0,-10.2552 -7.41507,-19 -17,-19 z m 0,6 c 5.87905,0 11,5.5821 11,13 0,7.4179 -5.12095,13 -11,13 -5.87905,0 -11,-5.5821 -11,-13 0,-7.4179 5.12095,-13 11,-13 z m 0,41.00003 c 11.99698,0 21.87828,8.2602 24.375,19.4375 -6.67432,5.3477 -15.13677,8.5625 -24.375,8.5625 -9.23823,0 -17.70068,-3.2148 -24.375,-8.5625 2.49672,-11.1773 12.37802,-19.4375 24.375,-19.4375 z"
       marker="none"
       visibility="visible"
       display="inline"
       overflow="visible"
       id="path2"
       inkscape:connector-curvature="0" />
  </g>
</svg>
