<?xml version="1.0" encoding="UTF-8" standalone="no"?>
<svg
   xmlns:dc="http://purl.org/dc/elements/1.1/"
   xmlns:cc="http://creativecommons.org/ns#"
   xmlns:rdf="http://www.w3.org/1999/02/22-rdf-syntax-ns#"
   xmlns:svg="http://www.w3.org/2000/svg"
   xmlns="http://www.w3.org/2000/svg"
   xmlns:sodipodi="http://sodipodi.sourceforge.net/DTD/sodipodi-0.dtd"
   xmlns:inkscape="http://www.inkscape.org/namespaces/inkscape"
   version="1.1"
   x="0px"
   y="0px"
   viewBox="0 0 37 27.163515"
   style="fill:#74a7eb"
   xml:space="preserve"
   id="svg835"
   sodipodi:docname="vitrification-machine.svg"
   width="37"
   height="27.163515"
   inkscape:version="0.92.2 (5c3e80d, 2017-08-06)"><metadata
     id="metadata841"><rdf:RDF><cc:Work
         rdf:about=""><dc:format>image/svg+xml</dc:format><dc:type
           rdf:resource="http://purl.org/dc/dcmitype/StillImage" /></cc:Work></rdf:RDF></metadata><defs
     id="defs839" /><sodipodi:namedview
     pagecolor="#ffffff"
     bordercolor="#666666"
     borderopacity="1"
     objecttolerance="10"
     gridtolerance="10"
     guidetolerance="10"
     inkscape:pageopacity="0"
     inkscape:pageshadow="2"
     inkscape:window-width="1920"
     inkscape:window-height="1017"
     id="namedview837"
     showgrid="false"
     inkscape:zoom="8.48"
     inkscape:cx="45"
     inkscape:cy="33"
     inkscape:window-x="-4"
     inkscape:window-y="-4"
     inkscape:window-maximized="1"
     inkscape:current-layer="svg835" /><path
     d="m 5.021135,27.163515 c -1.0289214,0 -1.8109014,-0.123471 -2.2636267,-0.329255 C 2.3047831,26.628476 0,25.187987 0,23.171301 V 2.181313 C 0,0.987764 0.9877642,0 2.1813126,0 H 34.818687 C 36.012236,0 37,0.987764 37,2.181313 v 20.948832 c 0,1.975528 -2.304783,3.457174 -2.757508,3.662958 -1.111235,0.493883 -4.280312,0.617353 -7.572859,-0.740823 -3.12792,-1.275862 -6.173526,-1.56396 -8.190211,-1.56396 -2.016686,0 -5.062292,0.288098 -8.190212,1.56396 -1.893214,0.823137 -3.786429,1.111235 -5.268075,1.111235 z M 2.1813126,1.028921 c -0.6585095,0 -1.1935484,0.535039 -1.1935484,1.152392 v 20.948832 c 0,1.317018 1.6874305,2.510567 2.1401557,2.716351 0.78198,0.370412 3.6629591,0.493882 6.7497221,-0.740823 3.292547,-1.358176 6.502781,-1.646274 8.60178,-1.646274 2.098998,0 5.309232,0.288098 8.601779,1.646274 3.086763,1.275862 5.967742,1.111235 6.749722,0.740823 0.452725,-0.205784 2.140156,-1.399333 2.140156,-2.716351 V 2.181313 c 0,-0.65851 -0.535039,-1.152392 -1.193548,-1.152392 z M 30.74416,23.747497 c -1.111235,0 -2.510567,-0.205784 -3.951057,-0.823137 -2.222469,-0.90545 -6.749721,-1.275862 -8.231368,-1.275862 -1.481646,0 -6.008899,0.370412 -8.231368,1.275862 C 7.860957,23.953281 5.47386,23.870968 4.6095662,23.459399 4.0333704,23.212458 2.5105673,22.060067 2.5105673,20.619577 V 4.527252 c 0,-0.987764 0.78198,-1.769744 1.7697442,-1.769744 H 32.884316 c 0.987764,0 1.769744,0.78198 1.769744,1.769744 v 16.133482 c 0,1.44049 -1.56396,2.592881 -2.098999,2.839822 -0.452725,0.123471 -1.028921,0.246941 -1.810901,0.246941 z m -12.223582,-3.12792 c 1.358176,0 6.13237,0.329255 8.642937,1.358176 2.222469,0.905451 4.321468,0.823137 4.897664,0.576196 0.288098,-0.123471 1.522803,-0.987764 1.522803,-1.893215 V 4.527252 c 0,-0.411568 -0.329255,-0.740823 -0.740823,-0.740823 H 4.1979978 c -0.4115684,0 -0.7408232,0.329255 -0.7408232,0.740823 v 16.133482 c 0,0.905451 1.1935484,1.769744 1.5228032,1.893215 0.5761962,0.246941 2.6340382,0.370411 4.8976642,-0.576196 2.510567,-1.028921 7.284761,-1.358176 8.642936,-1.358176 z"
     id="path829"
     inkscape:connector-curvature="0"
     style="stroke-width:0.4115684" /><polygon
     points="56.6,34 31.7,60.3 29.9,58.6 54.8,32.3 "
     id="polygon831"
     transform="matrix(0.41156841,0,0,0.41156841,-2.057842,-6.996663)" /><polygon
     points="70.1,36.5 45.2,62.8 43.4,61.1 68.3,34.8 "
     id="polygon833"
     transform="matrix(0.41156841,0,0,0.41156841,-2.057842,-6.996663)" /></svg>